<svg width="114" height="129" viewBox="0 0 114 129" fill="none" xmlns="http://www.w3.org/2000/svg">
<path d="M50.6033 16.9275L18.813 35.3577C14.9786 37.5805 12.6183 41.6772 12.6183 46.1091V82.7653C12.6183 87.1716 14.9517 91.2486 18.7511 93.4807L50.5414 112.157C54.4278 114.44 59.2459 114.44 63.1324 112.157L94.9228 93.4807C98.7223 91.2485 101.055 87.1716 101.055 82.7653V46.1091C101.055 41.6772 98.6948 37.5805 94.8607 35.3577L63.0704 16.9275C59.2153 14.6925 54.4584 14.6925 50.6033 16.9275Z" stroke="white" stroke-width="0.887695"/>
<path d="M52.5946 32.9174L29.9306 46.0173C27.7351 47.2864 26.3828 49.6298 26.3828 52.1656V78.178C26.3828 80.6992 27.7197 83.0315 29.8953 84.3058L52.5593 97.58C54.776 98.8787 57.5213 98.8787 59.7381 97.58L82.402 84.3058C84.5776 83.0315 85.9145 80.6992 85.9145 78.178V52.1657C85.9145 49.6298 84.5623 47.2864 82.3667 46.0173L59.7028 32.9174C57.5039 31.6464 54.7935 31.6464 52.5946 32.9174Z" stroke="white" stroke-width="0.887695"/>
<path d="M14.281 40.2236L56.5389 64.8545L99.0783 39.9153" stroke="white" stroke-opacity="0.4" stroke-width="0.665771" stroke-linecap="round" stroke-linejoin="bevel"/>
<path d="M56.6794 64.8547V113.902" stroke="white" stroke-opacity="0.4" stroke-width="0.665771" stroke-linecap="round"/>
</svg>
