<svg width="16" height="25" viewBox="0 0 16 25" fill="none" xmlns="http://www.w3.org/2000/svg">
<g id="SVG">
<path id="Vector" d="M12 7.33643H4.00001C3.26363 7.33643 2.66667 7.93338 2.66667 8.66976V16.6698C2.66667 17.4061 3.26363 18.0031 4.00001 18.0031H12C12.7364 18.0031 13.3333 17.4061 13.3333 16.6698V8.66976C13.3333 7.93338 12.7364 7.33643 12 7.33643Z" stroke="#DFE1F4" stroke-width="1.33333" stroke-linecap="round" stroke-linejoin="round"/>
<path id="Vector_2" d="M10 10.6699H6V14.6699H10V10.6699Z" stroke="#DFE1F4" stroke-width="1.33333" stroke-linecap="round" stroke-linejoin="round"/>
<path id="Vector_3" d="M10 6.00342V7.33675" stroke="#DFE1F4" stroke-width="1.33333" stroke-linecap="round" stroke-linejoin="round"/>
<path id="Vector_4" d="M10 18.0034V19.3368" stroke="#DFE1F4" stroke-width="1.33333" stroke-linecap="round" stroke-linejoin="round"/>
<path id="Vector_5" d="M1.33333 14.6699H2.66666" stroke="#DFE1F4" stroke-width="1.33333" stroke-linecap="round" stroke-linejoin="round"/>
<path id="Vector_6" d="M1.33333 10.6699H2.66666" stroke="#DFE1F4" stroke-width="1.33333" stroke-linecap="round" stroke-linejoin="round"/>
<path id="Vector_7" d="M13.3333 14.6699H14.6667" stroke="#DFE1F4" stroke-width="1.33333" stroke-linecap="round" stroke-linejoin="round"/>
<path id="Vector_8" d="M13.3333 10.6699H14.6667" stroke="#DFE1F4" stroke-width="1.33333" stroke-linecap="round" stroke-linejoin="round"/>
<path id="Vector_9" d="M6 6.00342V7.33675" stroke="#DFE1F4" stroke-width="1.33333" stroke-linecap="round" stroke-linejoin="round"/>
<path id="Vector_10" d="M6 18.0034V19.3368" stroke="#DFE1F4" stroke-width="1.33333" stroke-linecap="round" stroke-linejoin="round"/>
</g>
</svg>
