<svg width="16" height="25" viewBox="0 0 16 25" fill="none" xmlns="http://www.w3.org/2000/svg">
<g id="SVG">
<path id="Vector" d="M8.00001 17.3532C9.41449 17.3532 10.771 16.7913 11.7712 15.7911C12.7714 14.7909 13.3333 13.4343 13.3333 12.0199C13.3333 10.6054 12.7714 9.24881 11.7712 8.24862C10.771 7.24843 9.41449 6.68652 8.00001 6.68652C6.58552 6.68652 5.22896 7.24843 4.22877 8.24862C3.22858 9.24881 2.66667 10.6054 2.66667 12.0199C2.66667 13.4343 3.22858 14.7909 4.22877 15.7911C5.22896 16.7913 6.58552 17.3532 8.00001 17.3532Z" stroke="#DFE1F4" stroke-width="1.33333" stroke-linecap="round" stroke-linejoin="round"/>
<path id="Vector_2" d="M8.00001 13.3532C8.35363 13.3532 8.69277 13.2127 8.94281 12.9627C9.19286 12.7126 9.33334 12.3735 9.33334 12.0199C9.33334 11.6662 9.19286 11.3271 8.94281 11.077C8.69277 10.827 8.35363 10.6865 8.00001 10.6865C7.64638 10.6865 7.30724 10.827 7.0572 11.077C6.80715 11.3271 6.66667 11.6662 6.66667 12.0199C6.66667 12.3735 6.80715 12.7126 7.0572 12.9627C7.30724 13.2127 7.64638 13.3532 8.00001 13.3532Z" stroke="#DFE1F4" stroke-width="1.33333" stroke-linecap="round" stroke-linejoin="round"/>
<path id="Vector_3" d="M8 5.35352V6.68685" stroke="#DFE1F4" stroke-width="1.33333" stroke-linecap="round" stroke-linejoin="round"/>
<path id="Vector_4" d="M8 18.6868V17.3535" stroke="#DFE1F4" stroke-width="1.33333" stroke-linecap="round" stroke-linejoin="round"/>
<path id="Vector_5" d="M11.3333 17.7935L10.6667 16.6401" stroke="#DFE1F4" stroke-width="1.33333" stroke-linecap="round" stroke-linejoin="round"/>
<path id="Vector_6" d="M7.33334 10.8666L4.66667 6.24658" stroke="#DFE1F4" stroke-width="1.33333" stroke-linecap="round" stroke-linejoin="round"/>
<path id="Vector_7" d="M13.7733 15.3532L12.62 14.6865" stroke="#DFE1F4" stroke-width="1.33333" stroke-linecap="round" stroke-linejoin="round"/>
<path id="Vector_8" d="M2.22667 8.68652L3.38 9.35319" stroke="#DFE1F4" stroke-width="1.33333" stroke-linecap="round" stroke-linejoin="round"/>
<path id="Vector_9" d="M9.33333 12.02H14.6667" stroke="#DFE1F4" stroke-width="1.33333" stroke-linecap="round" stroke-linejoin="round"/>
<path id="Vector_10" d="M1.33333 12.02H2.66666" stroke="#DFE1F4" stroke-width="1.33333" stroke-linecap="round" stroke-linejoin="round"/>
<path id="Vector_11" d="M13.7733 8.68652L12.62 9.35319" stroke="#DFE1F4" stroke-width="1.33333" stroke-linecap="round" stroke-linejoin="round"/>
<path id="Vector_12" d="M2.22667 15.3532L3.38 14.6865" stroke="#DFE1F4" stroke-width="1.33333" stroke-linecap="round" stroke-linejoin="round"/>
<path id="Vector_13" d="M11.3333 6.24658L10.6667 7.39992" stroke="#DFE1F4" stroke-width="1.33333" stroke-linecap="round" stroke-linejoin="round"/>
<path id="Vector_14" d="M7.33334 13.1733L4.66667 17.7933" stroke="#DFE1F4" stroke-width="1.33333" stroke-linecap="round" stroke-linejoin="round"/>
</g>
</svg>
