<svg width="17" height="25" viewBox="0 0 17 25" fill="none" xmlns="http://www.w3.org/2000/svg">
<g id="SVG">
<path id="Vector" d="M12.25 18.02C13.3546 18.02 14.25 17.1246 14.25 16.02C14.25 14.9155 13.3546 14.02 12.25 14.02C11.1454 14.02 10.25 14.9155 10.25 16.02C10.25 17.1246 11.1454 18.02 12.25 18.02Z" stroke="#DFE1F4" stroke-width="1.33333" stroke-linecap="round" stroke-linejoin="round"/>
<path id="Vector_2" d="M4.25 10.02C5.35457 10.02 6.25 9.12459 6.25 8.02002C6.25 6.91545 5.35457 6.02002 4.25 6.02002C3.14543 6.02002 2.25 6.91545 2.25 8.02002C2.25 9.12459 3.14543 10.02 4.25 10.02Z" stroke="#DFE1F4" stroke-width="1.33333" stroke-linecap="round" stroke-linejoin="round"/>
<path id="Vector_3" d="M4.25 18.02V10.02C4.25 11.6113 4.88214 13.1374 6.00736 14.2627C7.13258 15.3879 8.6587 16.02 10.25 16.02" stroke="#DFE1F4" stroke-width="1.33333" stroke-linecap="round" stroke-linejoin="round"/>
</g>
</svg>
