<svg width="17" height="25" viewBox="0 0 17 25" fill="none" xmlns="http://www.w3.org/2000/svg">
<g id="SVG">
<path id="Vector" d="M14.25 10.1729C14.2498 9.93913 14.188 9.70949 14.071 9.50706C13.954 9.30463 13.7858 9.13652 13.5833 9.01962L8.91667 6.35295C8.71397 6.23592 8.48405 6.17432 8.25 6.17432C8.01595 6.17432 7.78603 6.23592 7.58333 6.35295L2.91667 9.01962C2.71418 9.13652 2.54599 9.30463 2.42897 9.50706C2.31196 9.70949 2.25024 9.93913 2.25 10.1729V15.5063C2.25024 15.7401 2.31196 15.9697 2.42897 16.1722C2.54599 16.3746 2.71418 16.5427 2.91667 16.6596L7.58333 19.3263C7.78603 19.4433 8.01595 19.5049 8.25 19.5049C8.48405 19.5049 8.71397 19.4433 8.91667 19.3263L13.5833 16.6596C13.7858 16.5427 13.954 16.3746 14.071 16.1722C14.188 15.9697 14.2498 15.7401 14.25 15.5063V10.1729Z" stroke="#DFE1F4" stroke-width="1.33333" stroke-linecap="round" stroke-linejoin="round"/>
<path id="Vector_2" d="M2.45001 9.50635L8.25001 12.8397L14.05 9.50635" stroke="#DFE1F4" stroke-width="1.33333" stroke-linecap="round" stroke-linejoin="round"/>
<path id="Vector_3" d="M8.25 19.5065V12.8398" stroke="#DFE1F4" stroke-width="1.33333" stroke-linecap="round" stroke-linejoin="round"/>
</g>
</svg>
