<svg width="17" height="25" viewBox="0 0 17 25" fill="none" xmlns="http://www.w3.org/2000/svg">
<g id="SVG" clip-path="url(#clip0_2_589)">
<path id="Vector" d="M14.49 14.6699H11.4633C11.1097 14.6699 10.7706 14.8104 10.5205 15.0604C10.2705 15.3105 10.13 15.6496 10.13 16.0033V19.0299" stroke="#DFE1F4" stroke-width="1.33333" stroke-linecap="round" stroke-linejoin="round"/>
<path id="Vector_2" d="M4.79669 6.89648V8.00315C4.79669 8.53358 5.00741 9.04229 5.38248 9.41736C5.75755 9.79244 6.26626 10.0032 6.79669 10.0032C7.15031 10.0032 7.48945 10.1436 7.7395 10.3937C7.98955 10.6437 8.13003 10.9829 8.13003 11.3365C8.13003 12.0698 8.73003 12.6698 9.46336 12.6698C9.81698 12.6698 10.1561 12.5293 10.4062 12.2793C10.6562 12.0292 10.7967 11.6901 10.7967 11.3365C10.7967 10.6032 11.3967 10.0032 12.13 10.0032H14.2434" stroke="#DFE1F4" stroke-width="1.33333" stroke-linecap="round" stroke-linejoin="round"/>
<path id="Vector_3" d="M7.46331 19.3034V16.6701C7.46331 16.3165 7.32283 15.9773 7.07279 15.7273C6.82274 15.4772 6.4836 15.3368 6.12998 15.3368C5.77635 15.3368 5.43722 15.1963 5.18717 14.9462C4.93712 14.6962 4.79664 14.357 4.79664 14.0034V13.3368C4.79664 12.9831 4.65617 12.644 4.40612 12.3939C4.15607 12.1439 3.81693 12.0034 3.46331 12.0034H1.49664" stroke="#DFE1F4" stroke-width="1.33333" stroke-linecap="round" stroke-linejoin="round"/>
<path id="Vector_4" d="M8.12998 19.3368C11.8119 19.3368 14.7967 16.352 14.7967 12.6701C14.7967 8.98819 11.8119 6.00342 8.12998 6.00342C4.44809 6.00342 1.46332 8.98819 1.46332 12.6701C1.46332 16.352 4.44809 19.3368 8.12998 19.3368Z" stroke="#DFE1F4" stroke-width="1.33333" stroke-linecap="round" stroke-linejoin="round"/>
</g>
<defs>
<clipPath id="clip0_2_589">
<rect width="16" height="24" fill="white" transform="translate(0.130005 0.669922)"/>
</clipPath>
</defs>
</svg>
