<svg width="540" height="120" viewBox="0 0 540 120" fill="none" xmlns="http://www.w3.org/2000/svg">
<mask id="mask0_2_603" style="mask-type:alpha" maskUnits="userSpaceOnUse" x="0" y="0" width="540" height="120">
<rect width="540" height="120" fill="url(#paint0_linear_2_603)"/>
</mask>
<g mask="url(#mask0_2_603)">
</g>
<g clip-path="url(#clip0_2_603)">
<g clip-path="url(#clip1_2_603)">
<g clip-path="url(#clip2_2_603)">
<g clip-path="url(#clip3_2_603)">
<path d="M269.663 60.0936C269.663 57.9953 270.497 55.983 271.98 54.4993C273.464 53.0156 275.477 52.1821 277.575 52.1821C279.673 52.1821 281.685 53.0156 283.169 54.4993C284.653 55.983 285.486 57.9953 285.486 60.0936C285.486 62.1919 284.653 64.2042 283.169 65.6879C281.685 67.1716 279.673 68.0051 277.575 68.0051C275.477 68.0051 273.464 67.1716 271.98 65.6879C270.497 64.2042 269.663 62.1919 269.663 60.0936Z" fill="#1ABCFE"/>
<path d="M253.84 75.9164C253.84 73.8183 254.674 71.8058 256.157 70.3218C257.641 68.8385 259.654 68.0049 261.752 68.0049H269.663V75.9164C269.663 78.0144 268.83 80.027 267.346 81.5109C265.862 82.9943 263.85 83.8278 261.752 83.8278C259.654 83.8278 257.641 82.9943 256.157 81.5109C254.674 80.027 253.84 78.0144 253.84 75.9164Z" fill="#0ACF83"/>
<path d="M269.663 36.3589V52.1818H277.575C279.673 52.1818 281.685 51.3483 283.169 49.8646C284.653 48.381 285.486 46.3686 285.486 44.2704C285.486 42.1721 284.653 40.1598 283.169 38.6761C281.685 37.1924 279.673 36.3589 277.575 36.3589H269.663Z" fill="#FF7262"/>
<path d="M253.84 44.2704C253.84 46.3686 254.674 48.381 256.157 49.8646C257.641 51.3483 259.654 52.1818 261.752 52.1818H269.663V36.3589H261.752C259.654 36.3589 257.641 37.1924 256.157 38.6761C254.674 40.1598 253.84 42.1721 253.84 44.2704Z" fill="#F24E1E"/>
<path d="M253.84 60.0936C253.84 62.1919 254.674 64.2042 256.157 65.6879C257.641 67.1716 259.654 68.0051 261.752 68.0051H269.663V52.1821H261.752C259.654 52.1821 257.641 53.0156 256.157 54.4993C254.674 55.983 253.84 57.9953 253.84 60.0936Z" fill="#A259FF"/>
</g>
</g>
</g>
<rect x="539.5" y="0.5" width="539" height="539" rx="269.5" transform="rotate(90 539.5 0.5)" stroke="white" stroke-opacity="0.2"/>
</g>
<defs>
<linearGradient id="paint0_linear_2_603" x1="270" y1="120" x2="270" y2="0" gradientUnits="userSpaceOnUse">
<stop stop-opacity="0"/>
<stop offset="0.6" stop-color="white"/>
<stop offset="1" stop-color="white"/>
</linearGradient>
<clipPath id="clip0_2_603">
<rect width="540" height="120" fill="white"/>
</clipPath>
<clipPath id="clip1_2_603">
<rect x="540" width="540" height="540" rx="270" transform="rotate(90 540 0)" fill="white"/>
</clipPath>
<clipPath id="clip2_2_603">
<rect width="540" height="540" fill="white" transform="matrix(0 1 -1 0 540 0)"/>
</clipPath>
<clipPath id="clip3_2_603">
<rect width="540" height="540" fill="white" transform="matrix(0 1 -1 0 540 0)"/>
</clipPath>
</defs>
</svg>
