<svg width="46" height="52" viewBox="0 0 46 52" fill="none" xmlns="http://www.w3.org/2000/svg">
<g clip-path="url(#clip0_2_638)">
<g clip-path="url(#clip1_2_638)">
<g clip-path="url(#clip2_2_638)">
<path d="M42.5213 8.64375C44.0797 9.15427 45.1423 10.5977 45.1667 12.2373V19.933C44.5966 19.1269 43.774 18.5009 42.79 18.1786L22.3565 11.4852C19.3011 10.4844 15.9678 10.7905 13.1457 12.3312L2.3424 18.2292C1.91049 18.465 1.53626 18.778 1.23331 19.146V11.1296C1.25817 10.0849 1.83853 9.1326 2.756 8.63173L9.62821 4.8799C14.7497 2.08384 20.7989 1.52826 26.3441 3.34465L42.5213 8.64375Z" stroke="white" stroke-width="0.863131"/>
<path d="M0.801743 20.5182L0.801743 10.1631C0.827562 11.9882 2.00976 13.5954 3.74434 14.1636L19.9216 19.4626C25.5798 21.3161 31.7525 20.7492 36.9786 17.8961L43.8508 14.1443C44.9052 13.5687 45.5716 12.4735 45.5983 11.2726V21.6276C45.5716 22.8286 44.9052 23.9237 43.8508 24.4994L36.9786 28.2511C31.7525 31.1043 25.5798 31.6712 19.9216 29.8177L3.74434 24.5186C2.00976 23.9505 0.827562 22.3433 0.801743 20.5182Z" fill="white"/>
<path d="M42.5213 27.2009C44.0797 27.7114 45.1423 29.1548 45.1667 30.7944V38.4901C44.5966 37.684 43.774 37.058 42.79 36.7357L22.3565 30.0424C19.3011 29.0415 15.9678 29.3477 13.1457 30.8883L2.3424 36.7864C1.91049 37.0222 1.53626 37.3352 1.23331 37.7032V29.6868C1.25817 28.642 1.83853 27.6897 2.756 27.1889L9.62821 23.437C14.7497 20.641 20.7989 20.0854 26.3441 21.9018L42.5213 27.2009Z" stroke="white" stroke-width="0.863131"/>
<path d="M0.801743 39.0753L0.801743 28.7202C0.827562 30.5453 2.00976 32.1525 3.74434 32.7207L19.9216 38.0198C25.5798 39.8733 31.7525 39.3063 36.9786 36.4533L43.8508 32.7014C44.9052 32.1258 45.5716 31.0306 45.5983 29.8297V40.1848C45.5716 41.3857 44.9052 42.4809 43.8508 43.0565L36.9786 46.8083C31.7525 49.6614 25.5798 50.2283 19.9216 48.3748L3.74434 43.0757C2.00976 42.5076 0.827562 40.9004 0.801743 39.0753Z" fill="white"/>
</g>
</g>
</g>
<defs>
<clipPath id="clip0_2_638">
<rect width="44.8" height="51.27" fill="white" transform="translate(0.800003 0.0297852)"/>
</clipPath>
<clipPath id="clip1_2_638">
<rect width="44.8" height="51.27" fill="white" transform="translate(0.800003 0.0297852)"/>
</clipPath>
<clipPath id="clip2_2_638">
<rect width="44.7965" height="51.27" fill="white" transform="translate(0.801743 0.0297852)"/>
</clipPath>
</defs>
</svg>
