<svg width="114" height="129" viewBox="0 0 114 129" fill="none" xmlns="http://www.w3.org/2000/svg">
<path d="M53.456 36.6658L25.9363 52.5419C23.7379 53.8102 22.3834 56.1553 22.3834 58.6932V90.1971C22.3834 92.7205 23.7224 95.0543 25.9009 96.3279L53.4207 112.416C55.635 113.71 58.375 113.71 60.5893 112.416L88.1091 96.3279C90.2879 95.0543 91.6266 92.7205 91.6266 90.1971V58.6932C91.6266 56.1553 90.272 53.8102 88.0738 52.5419L60.554 36.6658C58.3576 35.3988 55.6524 35.3988 53.456 36.6658Z" stroke="white" stroke-width="0.887695"/>
<path d="M23.2711 56.5248L57.3716 75.4524L90.7389 55.9231" stroke="white" stroke-opacity="0.3" stroke-width="0.665771" stroke-linecap="round" stroke-linejoin="bevel"/>
<path d="M57.005 75.4524V113.623" stroke="white" stroke-opacity="0.3" stroke-width="0.665771" stroke-linecap="round"/>
<path d="M53.4739 16.2249L24.6151 32.7621C23.2348 33.5531 22.3834 35.0223 22.3834 36.6131V42.141C22.3834 43.7227 23.2252 45.1849 24.593 45.9792L53.4386 62.7292C55.6438 64.0097 58.3663 64.0097 60.5714 62.7292L89.4171 45.9792C90.7851 45.1849 91.6266 43.7227 91.6266 42.141V36.6131C91.6266 35.0223 90.7753 33.5531 89.3949 32.7621L60.5361 16.2249C58.3489 14.9716 55.6612 14.9716 53.4739 16.2249Z" stroke="white" stroke-width="0.887695"/>
<path d="M23.2711 34.6184L56.8895 54.1477L90.7389 34.6184" stroke="white" stroke-opacity="0.96" stroke-width="0.665771" stroke-linecap="round" stroke-linejoin="bevel"/>
<path d="M57.005 54.1477V63.9124" stroke="white" stroke-opacity="0.96" stroke-width="0.665771" stroke-linecap="round"/>
</svg>
