<svg width="175" height="77" viewBox="0 0 175 77" fill="none" xmlns="http://www.w3.org/2000/svg">
<g id="humaans.svg">
<path id="Vector" d="M51.3587 43.8923H54.8132V31.4666H51.3587V36.1372H47.1463V31.4666H43.6918V43.8923H47.1463V38.9043H51.3587V43.8923ZM66.9069 34.0046H63.4347V39.3098C63.4347 40.4554 62.8002 41.1252 61.7956 41.1252C60.8086 41.1252 60.1565 40.4554 60.1565 39.3098V34.0046H56.7196V39.7504C56.7196 42.3589 58.1472 43.9804 60.4384 43.9804C61.8309 43.9804 62.8707 43.3282 63.4347 42.4822V43.8923H66.9069V34.0046ZM82.3384 43.8923H85.793V38.1289C85.793 35.538 84.2948 33.9165 81.792 33.9165C80.3293 33.9165 79.166 34.7273 78.4962 35.7319C77.8438 34.5863 76.6809 33.9165 75.2004 33.9165C73.8608 33.9165 72.8915 34.5157 72.3274 35.3088V34.0046H68.8728V43.8923H72.3274V38.5871C72.3274 37.512 72.962 36.9127 73.9842 36.9127C74.9712 36.9127 75.6057 37.512 75.6057 38.5871V43.8923H79.0602V38.5871C79.0602 37.512 79.6947 36.9127 80.6993 36.9127C81.6863 36.9127 82.3384 37.512 82.3384 38.5871V43.8923ZM87.1215 38.9396C87.1215 42.0945 88.9897 44.0156 91.3338 44.0156C92.7262 44.0156 93.7308 43.3988 94.2419 42.5175V43.8923H97.6965V34.0046H94.2419V35.3794C93.7308 34.4981 92.7438 33.8812 91.3338 33.8812C88.9897 33.8812 87.1215 35.7847 87.1215 38.9396ZM94.2419 38.9396C94.2419 40.2791 93.4136 41.0017 92.4442 41.0017C91.4572 41.0017 90.6464 40.2615 90.6464 38.9396C90.6464 37.6001 91.4572 36.8952 92.4442 36.8952C93.4136 36.8952 94.2419 37.6177 94.2419 38.9396ZM99.101 38.9396C99.101 42.0945 100.969 44.0156 103.313 44.0156C104.706 44.0156 105.71 43.3988 106.221 42.5175V43.8923H109.676V34.0046H106.221V35.3794C105.71 34.4981 104.723 33.8812 103.313 33.8812C100.969 33.8812 99.101 35.7847 99.101 38.9396ZM106.221 38.9396C106.221 40.2791 105.393 41.0017 104.424 41.0017C103.437 41.0017 102.626 40.2615 102.626 38.9396C102.626 37.6001 103.437 36.8952 104.424 36.8952C105.393 36.8952 106.221 37.6177 106.221 38.9396ZM118.377 43.8923H121.832V38.1289C121.832 35.538 120.404 33.9165 118.113 33.9165C116.72 33.9165 115.681 34.5686 115.099 35.4147V34.0046H111.644V43.8923H115.099V38.5871C115.099 37.4415 115.733 36.7717 116.756 36.7717C117.743 36.7717 118.377 37.4415 118.377 38.5871V43.8923ZM132.046 40.9842C132.029 37.2299 126.759 38.3579 126.759 36.948C126.759 36.5778 127.058 36.3488 127.622 36.3488C128.363 36.3488 128.803 36.7189 128.909 37.3358H132.029C131.799 35.3794 130.389 33.8812 127.693 33.8812C125.014 33.8812 123.586 35.3088 123.586 37.0362C123.586 40.6668 128.838 39.486 128.838 40.9313C128.838 41.2838 128.504 41.5657 127.922 41.5657C127.199 41.5657 126.653 41.2132 126.565 40.5611H123.216C123.357 42.5351 125.19 44.0156 127.94 44.0156C130.495 44.0156 132.046 42.7114 132.046 40.9842Z" fill="white"/>
</g>
</svg>
