<svg width="116" height="27" viewBox="0 0 116 27" fill="none" xmlns="http://www.w3.org/2000/svg">
<g clip-path="url(#clip0_2_27)">
<g clip-path="url(#clip1_2_27)">
<g clip-path="url(#clip2_2_27)">
<path d="M39.2743 15.4369C38.9845 16.617 37.9907 17.2795 36.4587 17.2795C34.6368 17.2795 33.3532 15.9338 33.1876 13.967H41.1583C41.179 13.7807 41.1997 13.4494 41.1997 13.1803C41.1997 10.5303 39.4814 8.23221 36.2516 8.23221C33.0426 8.23221 31.2208 10.6338 31.2208 13.5529C31.2208 16.4514 33.229 18.9979 36.4587 18.9979C39.0259 18.9979 40.9099 17.5901 41.2825 15.4369H39.2743ZM36.2516 9.84707C37.97 9.84707 39.0466 10.9029 39.1708 12.4971H33.2497C33.5602 10.758 34.6161 9.84707 36.2516 9.84707Z" fill="white"/>
<path d="M47.6422 18.8323L51.4515 8.39782H49.3814L46.6276 16.3064L43.8949 8.39782H41.8246L45.6547 18.8323H47.6422Z" fill="white"/>
<path d="M60.0583 15.4369C59.7687 16.617 58.7747 17.2795 57.2429 17.2795C55.4211 17.2795 54.1371 15.9338 53.9714 13.967H61.9425C61.9632 13.7807 61.9838 13.4494 61.9838 13.1803C61.9838 10.5303 60.2652 8.23221 57.036 8.23221C53.8269 8.23221 52.0051 10.6338 52.0051 13.5529C52.0051 16.4514 54.0132 18.9979 57.2429 18.9979C59.81 18.9979 61.6938 17.5901 62.0664 15.4369H60.0583ZM57.036 9.84707C58.7541 9.84707 59.8307 10.9029 59.955 12.4971H54.0339C54.3445 10.758 55.4 9.84707 57.036 9.84707Z" fill="white"/>
<path d="M70.0738 8.39782H68.8109C67.3411 8.39782 66.5128 9.01894 66.0365 10.4061V8.39782H64.0283V18.8323H66.0365V14.1119C66.0365 11.8346 66.6578 10.1369 68.5622 10.1369H70.0738V8.39782Z" fill="white"/>
<path d="M76.4933 18.8323L80.3027 8.39782H78.2321L75.4787 16.3064L72.746 8.39782H70.6754L74.5058 18.8323H76.4933Z" fill="white"/>
<path d="M85.5351 8.23221C83.0718 8.23221 81.2082 9.76424 81.0425 11.8139H82.9061C82.9681 10.758 84.024 9.84707 85.4732 9.84707C87.0881 9.84707 87.999 10.7166 87.999 11.9795C87.999 12.3522 87.7714 12.6006 87.295 12.6006H85.1212C82.6574 12.6006 81.0636 13.8428 81.0636 15.851C81.0636 17.7143 82.4711 18.9979 84.6036 18.9979C86.1771 18.9979 87.502 18.2526 87.999 17.1346V18.8323H90.0071V12.1037C90.0071 9.78494 88.2266 8.23221 85.5351 8.23221ZM84.9969 17.4037C83.8377 17.4037 83.0511 16.7619 83.0511 15.8096C83.0511 14.7123 83.9414 14.0084 85.3075 14.0084H87.999V14.2569C87.999 16.1823 86.9017 17.4037 84.9969 17.4037Z" fill="white"/>
<path d="M99.4785 8.39782V14.0498C99.4785 15.8717 98.3194 17.1967 96.6838 17.1967C95.2135 17.1967 94.2407 16.0787 94.2407 14.4225V8.39782H92.2325V14.8158C92.2325 17.3002 93.7643 18.9979 96.1249 18.9979C97.6774 18.9979 98.9196 18.294 99.4785 16.9896V18.8323H101.487V8.39782H99.4785Z" fill="white"/>
<path d="M106.172 18.8323V4.02944H104.164V18.8323H106.172Z" fill="white"/>
<path d="M110.032 8.39782H107.9V10.1369H110.032V15.4162C110.032 17.5486 111.378 18.8323 113.49 18.8323H115.125V17.0104H113.655C112.641 17.0104 112.041 16.3893 112.041 15.2713V10.1369H115.125V8.39782H112.041V5.1267H110.032V8.39782Z" fill="white"/>
<mask id="mask0_2_27" style="mask-type:luminance" maskUnits="userSpaceOnUse" x="0" y="0" width="23" height="26">
<path d="M22.2125 0.743448H0.194736V25.9378H22.2125V0.743448Z" fill="white"/>
</mask>
<g mask="url(#mask0_2_27)">
<path d="M12.7102 11.6099C10.0174 10.728 7.07979 10.9977 4.59267 12.3553L1.21494 14.1989C0.803506 14.4235 0.543117 14.8502 0.531448 15.3185V18.9489C0.640723 18.8527 0.761462 18.7677 0.892299 18.6964M12.7102 11.6099L12.815 11.2899M12.7102 11.6099L20.6614 14.2139C21.3765 14.4481 21.8641 15.1101 21.8758 15.8622V19.2961C21.6043 19.0115 21.2623 18.7906 20.8709 18.6624L10.8278 15.3733C9.29333 14.8707 7.61943 15.0245 6.20219 15.798L0.892299 18.6964M0.892299 18.6964L1.04381 18.9739" stroke="white" stroke-width="0.673421"/>
<path d="M0.194737 19.9304L0.194736 14.8419C0.207427 15.7387 0.788483 16.5286 1.64104 16.8078L9.59224 19.4118C12.3733 20.3225 15.4072 20.044 17.9758 18.642L21.3535 16.7983C21.8718 16.5154 22.1994 15.9773 22.2125 15.3871V20.4756C22.1994 21.0658 21.8718 21.604 21.3535 21.8868L17.9758 23.7305C15.4072 25.1325 12.3733 25.4111 9.59224 24.5003L1.64104 21.8963C0.788483 21.6171 0.207427 20.8273 0.194737 19.9304Z" fill="white"/>
<path d="M12.7102 2.49061C10.0174 1.60871 7.07979 1.87846 4.59267 3.23599L1.21494 5.07965C0.80351 5.30422 0.543117 5.73094 0.531448 6.19924V9.82961C0.640723 9.73344 0.761467 9.6485 0.892299 9.57707L6.20219 6.6788C7.61943 5.90522 9.29333 5.7515 10.8278 6.25405L20.8709 9.54318C21.2623 9.67135 21.6043 9.89223 21.8758 10.1768V6.74291C21.8641 5.99088 21.3765 5.32886 20.6614 5.0946L12.7102 2.49061ZM12.7102 2.49061L12.815 2.17062" stroke="white" stroke-width="0.673421"/>
<path d="M0.194737 10.8114L0.194736 5.72286C0.207427 6.61972 0.788483 7.40951 1.64104 7.68876L9.59224 10.2927C12.3733 11.2035 15.4072 10.9249 17.9758 9.52293L21.3535 7.67924C21.8718 7.3964 22.1994 6.8582 22.2125 6.26806V11.3566C22.1994 11.9468 21.8718 12.485 21.3535 12.7678L17.9758 14.6114C15.4072 16.0135 12.3733 16.2921 9.59224 15.3812L1.64104 12.7773C0.788483 12.4981 0.207427 11.7083 0.194737 10.8114Z" fill="white"/>
</g>
</g>
</g>
</g>
<defs>
<clipPath id="clip0_2_27">
<rect width="114.94" height="25.59" fill="white" transform="translate(0.189999 0.59)"/>
</clipPath>
<clipPath id="clip1_2_27">
<rect width="114.94" height="25.59" fill="white" transform="translate(0.189999 0.59)"/>
</clipPath>
<clipPath id="clip2_2_27">
<rect width="114.931" height="25.59" fill="white" transform="translate(0.194736 0.59)"/>
</clipPath>
</defs>
</svg>
