<svg width="176" height="78" viewBox="0 0 176 78" fill="none" xmlns="http://www.w3.org/2000/svg">
<g id="ness.svg">
<g id="Clip path group">
<mask id="mask0_2_80" style="mask-type:luminance" maskUnits="userSpaceOnUse" x="56" y="28" width="64" height="21">
<g id="clip0_3134_2177">
<path id="Vector" d="M119.324 28.0428H56.6657V48.929H119.324V28.0428Z" fill="white"/>
</g>
</mask>
<g mask="url(#mask0_2_80)">
<g id="Group">
<path id="Vector_2" d="M111.279 48.929C115.939 48.929 117.37 46.1779 117.37 44.3251C117.37 40.7879 112.514 39.7492 112.514 37.5596C112.514 36.9699 112.907 36.2681 113.889 36.2681C114.816 36.2681 115.237 36.8857 115.461 38.0648C115.574 38.6824 115.742 39.1878 116.809 39.1878C118.213 39.1878 119.027 38.3456 119.027 37.363C119.027 35.9313 117.23 34.3312 114.198 34.3312C110.745 34.3312 108.387 36.3805 108.387 38.9631C108.387 42.6969 112.963 43.4268 112.963 45.448C112.963 45.9815 112.626 46.7955 111.475 46.7955C110.324 46.7955 109.735 45.9814 109.426 44.7463C109.285 44.1567 109.089 43.7075 108.219 43.7075C106.899 43.7075 106.085 44.6339 106.085 45.7288C106.085 47.1886 107.573 48.929 111.279 48.929ZM88.5114 48.929C90.8695 48.929 92.0486 47.9745 92.8908 47.1043C93.1716 46.8235 93.6207 46.3183 94.0136 46.3183C94.2383 46.3183 94.4629 46.4586 95.2209 47.2166C96.1754 48.1711 97.6913 48.929 99.9932 48.929C104.373 48.929 105.692 46.1498 105.692 44.3251C105.692 40.8161 101.229 39.7212 101.229 37.5877C101.229 36.9981 101.621 36.2681 102.576 36.2681C103.53 36.2681 104.036 36.9981 104.232 38.486C104.316 39.0754 104.457 39.4404 105.411 39.4404C106.843 39.4404 107.854 38.6543 107.854 37.5033C107.854 35.9313 106.001 34.3312 102.913 34.3312C99.4036 34.3312 97.1018 36.3805 97.1018 38.9631C97.1018 42.6687 101.285 43.4267 101.285 45.42C101.285 45.9814 100.92 46.7955 99.8248 46.7955C97.2982 46.7955 98.6738 42.3599 95.9227 42.3599C93.6207 42.3599 92.7223 45.3637 89.859 45.3637C88.5114 45.3637 87.585 44.6058 87.4728 43.5671C87.4165 43.0899 87.6131 42.8372 88.0062 42.8653C88.2307 42.8933 88.4553 42.8933 88.6799 42.8933C92.8347 42.8933 96.428 40.3668 96.428 37.4192C96.428 35.4261 94.7717 34.3312 92.1047 34.3312C86.6025 34.3312 82.8689 39.3281 82.8689 43.4548C82.8689 46.4586 84.89 48.929 88.5114 48.929ZM88.3148 41.0406C87.7255 41.0406 87.5569 40.9002 87.5569 40.5915C87.5569 39.7492 88.7641 36.9139 90.8695 36.9139C91.6276 36.9139 92.1047 37.2508 92.1047 37.8965C92.1047 39.2158 90.3361 41.0406 88.3148 41.0406ZM61.0281 48.929C65.1547 48.929 66.6989 45.2234 69.45 39.4685L70.0395 38.2333C70.9659 36.2681 71.415 35.1734 72.2574 35.1734C72.7065 35.1734 72.9871 35.4822 72.9871 36.0998C72.9871 36.7174 72.7065 37.4754 72.2292 38.5702L71.6116 39.9737C70.4606 42.6127 70.0395 43.539 70.0395 45.1673C70.0395 47.1604 71.5835 48.929 74.11 48.929C78.0402 48.929 79.5563 44.9146 81.0722 41.3213L81.5213 40.2546C84.1321 34.0224 87.7816 32.3099 91.6276 32.3099C93.5365 32.3099 94.6875 32.7311 95.1366 32.7311C95.6139 32.7311 95.7543 32.2257 95.7543 31.7204C95.7543 30.401 94.7436 28.0428 90.617 28.0428C84.7216 28.0428 81.8864 32.366 78.9667 39.0194L78.4614 40.1703C77.6472 41.995 77.2542 42.6127 76.5523 42.6127C76.1032 42.6127 75.7383 42.3599 75.7383 41.7144C75.7383 41.3213 75.8506 41.0405 76.4682 39.6649L76.8613 38.7948C77.928 36.4366 78.3211 35.0891 78.3211 33.8819C78.3211 31.552 76.8332 30.1203 74.2785 30.1203C70.8256 30.1203 69.5342 32.7311 68.1306 35.6787L66.9514 38.1491C65.9128 40.3388 64.453 43.7917 58.0243 44.2128C57.1821 44.269 56.8172 44.5497 56.8172 45.42C56.8172 47.2447 58.1928 48.929 61.0281 48.929Z" fill="white"/>
</g>
</g>
</g>
</g>
</svg>
