<svg width="26" height="26" viewBox="0 0 26 26" fill="none" xmlns="http://www.w3.org/2000/svg">
<g clip-path="url(#clip0_2_673)">
<g clip-path="url(#clip1_2_673)">
<path d="M20.8196 10.1929H18.4597V16.3511H20.8196V10.1929Z" fill="white" fill-opacity="0.5"/>
<path d="M21.0666 8.26011C21.0666 8.6647 20.9318 9.00179 20.6621 9.22656C20.3924 9.45127 20.0552 9.58615 19.6507 9.58615C19.2461 9.58615 18.909 9.47377 18.6393 9.22656C18.3696 9.00179 18.2347 8.6647 18.2347 8.26011C18.2347 7.83307 18.3696 7.51848 18.6393 7.27121C18.909 7.024 19.2461 6.91162 19.6507 6.91162C20.0552 6.91162 20.3924 7.024 20.6621 7.27121C20.9318 7.49598 21.0666 7.83307 21.0666 8.26011Z" fill="white" fill-opacity="0.5"/>
<path d="M24.5729 15.1604L6.52541 20.8241L1.26624 6.50748L20.2127 5.45117L24.5729 15.1604Z" fill="white" fill-opacity="0.25"/>
<path d="M10.9306 12.283C10.9306 12.6426 10.8407 12.9573 10.6833 13.2495C10.526 13.5192 10.3013 13.7665 10.0091 13.9462C9.7169 14.1261 9.35731 14.2609 8.95277 14.3508C8.54818 14.4407 8.09865 14.4856 7.58179 14.4856H7.22219V16.3286H4.88477V10.1929H7.62673C8.66062 10.1929 9.46969 10.3726 10.054 10.7098C10.6384 11.0469 10.9306 11.5864 10.9306 12.283ZM8.68306 12.3055C8.68306 11.7662 8.27847 11.4965 7.4919 11.4965H7.1997V13.1371H7.4694C7.85149 13.1371 8.16609 13.0697 8.36836 12.9348C8.57068 12.8225 8.68306 12.5977 8.68306 12.3055Z" fill="white" fill-opacity="0.5"/>
<path d="M16.7291 16.3291C16.3695 16.3965 15.9649 16.4415 15.493 16.4415C14.8412 16.4415 14.2568 16.3741 13.7624 16.2167C13.2454 16.0594 12.8184 15.8571 12.4588 15.5874C12.0992 15.3177 11.8295 14.9805 11.6497 14.5985C11.4699 14.194 11.38 13.7669 11.38 13.295C11.38 12.823 11.4699 12.396 11.6722 11.9914C11.8745 11.6093 12.1441 11.2722 12.5038 10.9801C12.8634 10.7104 13.2904 10.4856 13.7848 10.3282C14.2793 10.171 14.8187 10.1035 15.4031 10.1035C15.8526 10.1035 16.2796 10.126 16.6617 10.1934C17.0437 10.2833 17.0437 10.2833 17.3359 10.3957V12.0364C17.1112 11.9015 16.8414 11.7891 16.5493 11.7217C16.2571 11.6318 15.9424 11.5868 15.6278 11.5868C15.0884 11.5868 14.6614 11.7442 14.3242 12.0139C13.9871 12.3061 13.8298 12.7107 13.8298 13.2725C13.8298 13.5422 13.8747 13.7894 13.9871 14.0142C14.0995 14.2164 14.2344 14.3962 14.4141 14.5311C14.5939 14.6659 14.7962 14.7783 15.0434 14.8458C15.2907 14.9132 15.5378 14.9581 15.8076 14.9581C16.0773 14.9581 16.3695 14.9357 16.6391 14.8682C16.9088 14.8008 17.2011 14.7334 17.4932 14.5985V16.1493C17.1336 16.2392 17.0887 16.2617 16.7291 16.3291Z" fill="white" fill-opacity="0.5"/>
</g>
</g>
<defs>
<clipPath id="clip0_2_673">
<rect width="25.59" height="25.59" fill="white" transform="translate(0.199951 0.279785)"/>
</clipPath>
<clipPath id="clip1_2_673">
<rect width="25.59" height="25.59" fill="white" transform="translate(0.199951 0.279785)"/>
</clipPath>
</defs>
</svg>
