<svg width="360" height="496" viewBox="0 0 360 496" fill="none" xmlns="http://www.w3.org/2000/svg">
<g clip-path="url(#clip0_2_168)">
<path d="M308.975 115.115L275.43 134.504C272.112 136.423 270.068 139.965 270.068 143.798V182.3C270.068 186.11 272.088 189.635 275.377 191.562L308.922 211.21C312.272 213.173 316.421 213.173 319.771 211.21L353.317 191.562C356.605 189.635 358.625 186.11 358.625 182.3V143.798C358.625 139.965 356.581 136.423 353.263 134.504L319.718 115.115C316.394 113.194 312.299 113.194 308.975 115.115Z" fill="white" fill-opacity="0.1" stroke="white" stroke-width="1.07336"/>
<path opacity="0.4" d="M271.604 138.628L314.347 163.454L357.089 138.628" stroke="white" stroke-width="0.715576" stroke-linecap="round" stroke-linejoin="bevel"/>
<path d="M133.117 141.252L121.839 147.809C118.534 149.731 116.5 153.265 116.5 157.089V272.711C116.5 276.534 118.534 280.068 121.839 281.99L221.162 339.736C224.497 341.675 228.617 341.675 231.952 339.736L243.229 333.179C246.535 331.258 248.568 327.723 248.568 323.9V208.278C248.568 204.455 246.535 200.92 243.229 198.999L143.907 141.252C140.571 139.314 136.452 139.314 133.117 141.252Z" fill="white" fill-opacity="0.1" stroke="white" stroke-width="1.07336"/>
<path d="M135.385 190.708L129.599 194.051C127.828 195.074 126.739 196.963 126.739 199.008V269.467C126.739 271.497 127.813 273.375 129.563 274.403L189.564 309.657C191.382 310.725 193.64 310.707 195.441 309.611L201.531 305.904C203.243 304.862 204.286 303 204.279 300.995L204.044 230.532C204.038 228.499 202.953 226.621 201.195 225.6L141.123 190.714C139.35 189.685 137.16 189.682 135.385 190.708Z" fill="#6633EE" stroke="white" stroke-width="0.715576"/>
<path d="M113.167 302.637L9.19142 241.741C7.35375 240.665 5.06313 240.732 3.29121 241.913C1.7428 242.946 0.812744 244.683 0.812744 246.544V317.336C0.812744 319.361 1.88395 321.237 3.62934 322.267L107.377 383.451C109.342 384.61 111.807 384.492 113.652 383.15L113.877 382.986C115.364 381.905 116.241 380.175 116.234 378.337L115.999 307.557C115.993 305.532 114.916 303.66 113.167 302.637Z" fill="white" fill-opacity="0.1" stroke="white" stroke-width="1.07336"/>
<path opacity="0.4" d="M314.347 163.454V212.34" stroke="white" stroke-width="0.715576" stroke-linecap="round"/>
<path opacity="0.4" d="M226.301 214.644V340.825" stroke="white" stroke-width="0.715576" stroke-linecap="round"/>
<path opacity="0.4" d="M193.285 233.84V308.064" stroke="white" stroke-width="0.715576" stroke-linecap="round"/>
<path opacity="0.4" d="M111.382 306.646V382.406" stroke="white" stroke-width="0.715576" stroke-linecap="round"/>
<path opacity="0.4" d="M118.804 152.193L226.301 214.644L247.033 202.614" stroke="white" stroke-width="0.715576" stroke-linecap="round" stroke-linejoin="bevel"/>
<path opacity="0.4" d="M127.762 195.704L193.284 233.84L203.01 228.121" stroke="white" stroke-width="0.715576" stroke-linecap="round" stroke-linejoin="bevel"/>
<path opacity="0.4" d="M2.34839 243.054L111.381 306.646L114.709 304.736" stroke="white" stroke-width="0.715576" stroke-linecap="round" stroke-linejoin="round"/>
<path d="M12.215 292.505C13.3746 293.174 14.3145 292.631 14.3145 291.292C14.3145 289.953 13.3744 288.325 12.2148 287.656C11.0553 286.986 10.1153 287.529 10.1153 288.868C10.1154 290.207 11.0554 291.835 12.215 292.505Z" fill="white"/>
<path d="M18.3524 296.048C19.512 296.718 20.4519 296.175 20.4519 294.836C20.4519 293.497 19.5118 291.869 18.3522 291.199C17.1926 290.53 16.2527 291.072 16.2527 292.411C16.2527 293.75 17.1928 295.378 18.3524 296.048Z" fill="white"/>
<path d="M24.4898 299.592C25.6494 300.262 26.5894 299.719 26.5893 298.38C26.5893 297.041 25.6492 295.413 24.4897 294.743C23.3301 294.074 22.3901 294.617 22.3902 295.956C22.3902 297.295 23.3303 298.923 24.4898 299.592Z" fill="white"/>
<path d="M30.6269 303.136C31.7865 303.805 32.7265 303.263 32.7264 301.924C32.7264 300.585 31.7863 298.957 30.6268 298.287C29.4672 297.617 28.5272 298.16 28.5272 299.499C28.5273 300.838 29.4673 302.466 30.6269 303.136Z" fill="white"/>
<path d="M36.7639 306.679C37.9235 307.349 38.8635 306.806 38.8635 305.467C38.8634 304.128 37.9234 302.5 36.7638 301.83C35.6042 301.161 34.6642 301.704 34.6643 303.043C34.6643 304.382 35.6044 306.01 36.7639 306.679Z" fill="white"/>
<path d="M42.9014 310.223C44.061 310.892 45.001 310.35 45.0009 309.011C45.0009 307.672 44.0608 306.044 42.9012 305.374C41.7417 304.705 40.8017 305.247 40.8017 306.586C40.8018 307.925 41.7418 309.553 42.9014 310.223Z" fill="white"/>
<path d="M49.0387 313.767C50.1982 314.436 51.1382 313.893 51.1382 312.554C51.1381 311.215 50.1981 309.587 49.0385 308.918C47.8789 308.248 46.9389 308.791 46.939 310.13C46.939 311.469 47.8791 313.097 49.0387 313.767Z" fill="white"/>
<path d="M55.1759 317.31C56.3355 317.98 57.2755 317.437 57.2754 316.098C57.2754 314.759 56.3353 313.131 55.1758 312.461C54.0162 311.792 53.0762 312.334 53.0762 313.673C53.0763 315.012 54.0163 316.64 55.1759 317.31Z" fill="white"/>
<path d="M61.3131 320.854C62.4727 321.523 63.4127 320.98 63.4127 319.641C63.4126 318.302 62.4726 316.674 61.313 316.005C60.1534 315.335 59.2134 315.878 59.2135 317.217C59.2135 318.556 60.1536 320.184 61.3131 320.854Z" fill="white"/>
<path d="M67.4506 324.397C68.6102 325.067 69.5501 324.524 69.5501 323.185C69.5501 321.846 68.61 320.218 67.4504 319.548C66.2909 318.879 65.3509 319.421 65.3509 320.76C65.3509 322.099 66.291 323.727 67.4506 324.397Z" fill="white"/>
<path d="M73.5876 327.941C74.7472 328.611 75.6872 328.068 75.6871 326.729C75.6871 325.39 74.747 323.762 73.5875 323.092C72.4279 322.423 71.4879 322.966 71.4879 324.305C71.488 325.644 72.428 327.272 73.5876 327.941Z" fill="white"/>
<path d="M79.7252 331.485C80.8848 332.154 81.8248 331.612 81.8248 330.273C81.8247 328.934 80.8847 327.305 79.7251 326.636C78.5655 325.966 77.6255 326.509 77.6256 327.848C77.6256 329.187 78.5657 330.815 79.7252 331.485Z" fill="white"/>
<path d="M292.377 179.184C293.746 179.975 294.855 179.334 294.855 177.753C294.855 176.173 293.745 174.25 292.376 173.46C291.007 172.669 289.898 173.31 289.898 174.891C289.898 176.472 291.008 178.394 292.377 179.184Z" fill="white"/>
<path d="M159.756 256.281C161.125 257.072 162.234 256.431 162.234 254.85C162.234 253.269 161.124 251.347 159.755 250.557C158.386 249.766 157.277 250.407 157.277 251.988C157.277 253.569 158.387 255.491 159.756 256.281Z" fill="white"/>
<path d="M20.4769 175.743H21.4221V180.911C21.4221 181.445 21.2964 181.921 21.0448 182.341C20.7958 182.758 20.4438 183.087 19.989 183.328C19.5341 183.567 19.0005 183.686 18.3881 183.686C17.7757 183.686 17.242 183.567 16.7872 183.328C16.3323 183.087 15.9791 182.758 15.7275 182.341C15.4785 181.921 15.354 181.445 15.354 180.911V175.743H16.2993V180.835C16.2993 181.216 16.3831 181.556 16.5508 181.853C16.7186 182.148 16.9574 182.38 17.2674 182.55C17.58 182.718 17.9535 182.802 18.3881 182.802C18.8226 182.802 19.1961 182.718 19.5087 182.55C19.8212 182.38 20.0601 182.148 20.2253 181.853C20.393 181.556 20.4769 181.216 20.4769 180.835V175.743ZM27.335 179.006L26.5269 179.234C26.4761 179.1 26.4011 178.969 26.302 178.842C26.2055 178.712 26.0733 178.605 25.9056 178.521C25.7379 178.438 25.5232 178.396 25.2614 178.396C24.9031 178.396 24.6046 178.478 24.3657 178.643C24.1294 178.806 24.0112 179.013 24.0112 179.265C24.0112 179.488 24.0925 179.665 24.2552 179.795C24.4178 179.924 24.6719 180.032 25.0175 180.119L25.8866 180.332C26.41 180.459 26.8001 180.653 27.0567 180.915C27.3134 181.174 27.4417 181.509 27.4417 181.918C27.4417 182.253 27.3451 182.553 27.152 182.817C26.9614 183.082 26.6946 183.29 26.3516 183.442C26.0085 183.595 25.6096 183.671 25.1547 183.671C24.5576 183.671 24.0633 183.541 23.672 183.282C23.2806 183.023 23.0329 182.644 22.9287 182.146L23.7825 181.933C23.8638 182.248 24.0176 182.484 24.2437 182.642C24.4724 182.799 24.771 182.878 25.1395 182.878C25.5588 182.878 25.8916 182.789 26.1381 182.611C26.3872 182.431 26.5117 182.215 26.5117 181.963C26.5117 181.76 26.4405 181.59 26.2982 181.453C26.1559 181.313 25.9374 181.209 25.6426 181.14L24.6668 180.911C24.1306 180.784 23.7368 180.587 23.4852 180.321C23.2362 180.051 23.1117 179.715 23.1117 179.311C23.1117 178.98 23.2044 178.688 23.3899 178.434C23.578 178.18 23.8333 177.98 24.1561 177.835C24.4813 177.691 24.8498 177.618 25.2614 177.618C25.8408 177.618 26.2957 177.745 26.626 177.999C26.9589 178.253 27.1952 178.589 27.335 179.006ZM31.2505 183.671C30.6864 183.671 30.1998 183.547 29.7906 183.298C29.3841 183.046 29.0702 182.695 28.8492 182.245C28.6306 181.793 28.5214 181.267 28.5214 180.667C28.5214 180.068 28.6306 179.539 28.8492 179.082C29.0702 178.622 29.3777 178.264 29.7716 178.007C30.168 177.748 30.6305 177.618 31.159 177.618C31.464 177.618 31.7651 177.669 32.0624 177.771C32.3597 177.872 32.6303 178.037 32.8743 178.266C33.1182 178.492 33.3126 178.792 33.4575 179.166C33.6023 179.539 33.6747 179.999 33.6747 180.545V180.927H29.1617V180.149H32.7599C32.7599 179.819 32.6939 179.524 32.5617 179.265C32.4321 179.006 32.2466 178.801 32.0052 178.651C31.7664 178.501 31.4843 178.426 31.159 178.426C30.8007 178.426 30.4907 178.515 30.229 178.693C29.9698 178.868 29.7703 179.097 29.6306 179.379C29.4908 179.661 29.4209 179.964 29.4209 180.286V180.805C29.4209 181.247 29.4971 181.622 29.6496 181.929C29.8046 182.234 30.0193 182.467 30.2938 182.627C30.5682 182.784 30.8871 182.863 31.2505 182.863C31.4868 182.863 31.7003 182.83 31.8909 182.764C32.084 182.695 32.2504 182.594 32.3902 182.459C32.53 182.322 32.638 182.151 32.7142 181.948L33.5832 182.192C33.4918 182.487 33.338 182.746 33.122 182.97C32.906 183.191 32.6392 183.364 32.3216 183.488C32.004 183.61 31.6469 183.671 31.2505 183.671ZM35.0431 183.549V177.694H35.9122V178.579H35.9732C36.0799 178.289 36.273 178.054 36.5525 177.874C36.8321 177.693 37.1472 177.603 37.4978 177.603C37.5639 177.603 37.6465 177.604 37.7456 177.607C37.8447 177.609 37.9196 177.613 37.9705 177.618V178.533C37.94 178.525 37.8701 178.514 37.7608 178.499C37.6541 178.481 37.541 178.472 37.4216 178.472C37.137 178.472 36.8829 178.532 36.6593 178.651C36.4382 178.768 36.2628 178.931 36.1332 179.139C36.0062 179.345 35.9427 179.58 35.9427 179.844V183.549H35.0431ZM39.8144 175.743V178.426H38.9758V175.743H39.8144ZM45.5633 179.006L44.7552 179.234C44.7044 179.1 44.6294 178.969 44.5303 178.842C44.4338 178.712 44.3016 178.605 44.1339 178.521C43.9662 178.438 43.7515 178.396 43.4898 178.396C43.1315 178.396 42.8329 178.478 42.594 178.643C42.3577 178.806 42.2395 179.013 42.2395 179.265C42.2395 179.488 42.3208 179.665 42.4835 179.795C42.6461 179.924 42.9002 180.032 43.2458 180.119L44.1149 180.332C44.6383 180.459 45.0284 180.653 45.285 180.915C45.5417 181.174 45.67 181.509 45.67 181.918C45.67 182.253 45.5735 182.553 45.3803 182.817C45.1898 183.082 44.9229 183.29 44.5799 183.442C44.2368 183.595 43.8379 183.671 43.383 183.671C42.7859 183.671 42.2916 183.541 41.9003 183.282C41.509 183.023 41.2612 182.644 41.157 182.146L42.0108 181.933C42.0921 182.248 42.2459 182.484 42.472 182.642C42.7007 182.799 42.9993 182.878 43.3678 182.878C43.7871 182.878 44.1199 182.789 44.3664 182.611C44.6155 182.431 44.74 182.215 44.74 181.963C44.74 181.76 44.6688 181.59 44.5265 181.453C44.3842 181.313 44.1657 181.209 43.8709 181.14L42.8951 180.911C42.359 180.784 41.9651 180.587 41.7135 180.321C41.4645 180.051 41.34 179.715 41.34 179.311C41.34 178.98 41.4327 178.688 41.6182 178.434C41.8063 178.18 42.0617 177.98 42.3844 177.835C42.7096 177.691 43.0781 177.618 43.4898 177.618C44.0691 177.618 44.524 177.745 44.8543 177.999C45.1872 178.253 45.4235 178.589 45.5633 179.006ZM56.4465 178.182H55.5012C55.4453 177.91 55.3475 177.671 55.2077 177.466C55.0705 177.26 54.9028 177.087 54.7046 176.947C54.5089 176.805 54.2917 176.698 54.0528 176.627C53.814 176.556 53.5649 176.52 53.3057 176.52C52.8331 176.52 52.4049 176.64 52.0212 176.879C51.64 177.118 51.3364 177.469 51.1102 177.934C50.8866 178.4 50.7748 178.97 50.7748 179.646C50.7748 180.322 50.8866 180.892 51.1102 181.357C51.3364 181.822 51.64 182.174 52.0212 182.413C52.4049 182.652 52.8331 182.771 53.3057 182.771C53.5649 182.771 53.814 182.736 54.0528 182.665C54.2917 182.594 54.5089 182.488 54.7046 182.348C54.9028 182.206 55.0705 182.032 55.2077 181.826C55.3475 181.618 55.4453 181.379 55.5012 181.11H56.4465C56.3754 181.509 56.2458 181.866 56.0577 182.181C55.8697 182.496 55.6359 182.764 55.3564 182.985C55.0769 183.203 54.7631 183.37 54.4149 183.484C54.0693 183.599 53.6996 183.656 53.3057 183.656C52.64 183.656 52.0479 183.493 51.5295 183.168C51.0111 182.843 50.6033 182.38 50.306 181.78C50.0086 181.181 49.86 180.469 49.86 179.646C49.86 178.823 50.0086 178.111 50.306 177.511C50.6033 176.912 51.0111 176.449 51.5295 176.124C52.0479 175.799 52.64 175.636 53.3057 175.636C53.6996 175.636 54.0693 175.693 54.4149 175.808C54.7631 175.922 55.0769 176.09 55.3564 176.311C55.6359 176.529 55.8697 176.796 56.0577 177.111C56.2458 177.424 56.3754 177.781 56.4465 178.182ZM59.575 183.686C59.204 183.686 58.8673 183.616 58.5649 183.477C58.2625 183.334 58.0223 183.13 57.8445 182.863C57.6666 182.594 57.5776 182.268 57.5776 181.887C57.5776 181.552 57.6437 181.28 57.7759 181.071C57.908 180.861 58.0846 180.695 58.3057 180.576C58.5268 180.457 58.7707 180.368 59.0375 180.309C59.3069 180.248 59.5775 180.2 59.8494 180.164C60.2052 180.119 60.4936 180.084 60.7146 180.061C60.9383 180.036 61.1009 179.994 61.2025 179.936C61.3067 179.877 61.3588 179.776 61.3588 179.631V179.6C61.3588 179.224 61.2559 178.932 61.0501 178.724C60.8468 178.515 60.538 178.411 60.1238 178.411C59.6944 178.411 59.3577 178.505 59.1137 178.693C58.8698 178.881 58.6983 179.082 58.5992 179.295L57.7454 178.99C57.8978 178.635 58.1011 178.358 58.3552 178.159C58.6119 177.959 58.8914 177.819 59.1938 177.74C59.4987 177.659 59.7986 177.618 60.0933 177.618C60.2814 177.618 60.4974 177.641 60.7413 177.687C60.9878 177.73 61.2254 177.82 61.4541 177.957C61.6853 178.095 61.8772 178.302 62.0297 178.579C62.1821 178.856 62.2584 179.227 62.2584 179.692V183.549H61.3588V182.756H61.3131C61.2521 182.883 61.1504 183.019 61.0081 183.164C60.8658 183.309 60.6765 183.432 60.4402 183.534C60.2039 183.635 59.9155 183.686 59.575 183.686ZM59.7122 182.878C60.0679 182.878 60.3678 182.808 60.6117 182.669C60.8582 182.529 61.0437 182.348 61.1682 182.127C61.2953 181.906 61.3588 181.674 61.3588 181.43V180.606C61.3207 180.652 61.2368 180.694 61.1072 180.732C60.9802 180.768 60.8328 180.8 60.6651 180.828C60.4999 180.853 60.3386 180.876 60.181 180.896C60.026 180.914 59.9002 180.929 59.8037 180.942C59.5699 180.972 59.3513 181.022 59.1481 181.091C58.9473 181.157 58.7847 181.257 58.6602 181.392C58.5382 181.524 58.4772 181.704 58.4772 181.933C58.4772 182.245 58.5928 182.482 58.8241 182.642C59.0578 182.799 59.3539 182.878 59.7122 182.878ZM63.9002 183.549V177.694H64.7693V178.579H64.8303C64.937 178.289 65.1301 178.054 65.4097 177.874C65.6892 177.693 66.0043 177.603 66.3549 177.603C66.421 177.603 66.5036 177.604 66.6027 177.607C66.7018 177.609 66.7768 177.613 66.8276 177.618V178.533C66.7971 178.525 66.7272 178.514 66.618 178.499C66.5112 178.481 66.3981 178.472 66.2787 178.472C65.9941 178.472 65.74 178.532 65.5164 178.651C65.2953 178.768 65.12 178.931 64.9904 179.139C64.8633 179.345 64.7998 179.58 64.7998 179.844V183.549H63.9002ZM69.9265 183.671C69.4386 183.671 69.0079 183.548 68.6343 183.301C68.2608 183.052 67.9685 182.702 67.7576 182.249C67.5467 181.794 67.4413 181.257 67.4413 180.637C67.4413 180.022 67.5467 179.488 67.7576 179.036C67.9685 178.584 68.262 178.234 68.6381 177.988C69.0142 177.741 69.4487 177.618 69.9417 177.618C70.3229 177.618 70.624 177.682 70.8451 177.809C71.0687 177.933 71.239 178.076 71.3558 178.236C71.4753 178.393 71.568 178.523 71.6341 178.624H71.7103V175.743H72.6099V183.549H71.7408V182.65H71.6341C71.568 182.756 71.474 182.891 71.352 183.054C71.2301 183.214 71.056 183.357 70.8298 183.484C70.6037 183.609 70.3026 183.671 69.9265 183.671ZM70.0484 182.863C70.4093 182.863 70.7142 182.769 70.9632 182.581C71.2123 182.39 71.4016 182.127 71.5312 181.792C71.6608 181.454 71.7256 181.064 71.7256 180.622C71.7256 180.185 71.662 179.802 71.535 179.474C71.4079 179.144 71.2199 178.887 70.9709 178.704C70.7218 178.519 70.4144 178.426 70.0484 178.426C69.6673 178.426 69.3496 178.524 69.0955 178.72C68.844 178.913 68.6546 179.176 68.5276 179.509C68.4031 179.839 68.3408 180.21 68.3408 180.622C68.3408 181.038 68.4043 181.417 68.5314 181.758C68.661 182.096 68.8516 182.365 69.1032 182.566C69.3573 182.764 69.6724 182.863 70.0484 182.863Z" fill="white"/>
<path d="M154.017 77.2861H153.072C153.016 77.0142 152.918 76.7754 152.779 76.5695C152.641 76.3637 152.474 76.1909 152.276 76.0512C152.08 75.9089 151.863 75.8021 151.624 75.731C151.385 75.6598 151.136 75.6243 150.877 75.6243C150.404 75.6243 149.976 75.7437 149.592 75.9825C149.211 76.2214 148.907 76.5734 148.681 77.0384C148.458 77.5034 148.346 78.0739 148.346 78.7498C148.346 79.4257 148.458 79.9962 148.681 80.4612C148.907 80.9263 149.211 81.2782 149.592 81.5171C149.976 81.7559 150.404 81.8754 150.877 81.8754C151.136 81.8754 151.385 81.8398 151.624 81.7686C151.863 81.6975 152.08 81.592 152.276 81.4523C152.474 81.31 152.641 81.1359 152.779 80.9301C152.918 80.7217 153.016 80.4828 153.072 80.2135H154.017C153.946 80.6124 153.817 80.9695 153.629 81.2846C153.441 81.5997 153.207 81.8678 152.927 82.0888C152.648 82.3074 152.334 82.4738 151.986 82.5882C151.64 82.7025 151.271 82.7597 150.877 82.7597C150.211 82.7597 149.619 82.597 149.1 82.2718C148.582 81.9465 148.174 81.484 147.877 80.8843C147.58 80.2846 147.431 79.5731 147.431 78.7498C147.431 77.9265 147.58 77.215 147.877 76.6153C148.174 76.0156 148.582 75.5531 149.1 75.2278C149.619 74.9026 150.211 74.7399 150.877 74.7399C151.271 74.7399 151.64 74.7971 151.986 74.9115C152.334 75.0258 152.648 75.1935 152.927 75.4146C153.207 75.6331 153.441 75.9 153.629 76.2151C153.817 76.5276 153.946 76.8846 154.017 77.2861ZM157.802 82.7749C157.273 82.7749 156.809 82.6491 156.41 82.3976C156.014 82.146 155.704 81.7941 155.48 81.3417C155.259 80.8894 155.149 80.3609 155.149 79.7561C155.149 79.1462 155.259 78.6139 155.48 78.159C155.704 77.7041 156.014 77.3509 156.41 77.0994C156.809 76.8478 157.273 76.722 157.802 76.722C158.33 76.722 158.793 76.8478 159.189 77.0994C159.588 77.3509 159.898 77.7041 160.119 78.159C160.343 78.6139 160.454 79.1462 160.454 79.7561C160.454 80.3609 160.343 80.8894 160.119 81.3417C159.898 81.7941 159.588 82.146 159.189 82.3976C158.793 82.6491 158.33 82.7749 157.802 82.7749ZM157.802 81.9669C158.203 81.9669 158.533 81.8639 158.793 81.6581C159.052 81.4523 159.244 81.1817 159.368 80.8462C159.493 80.5108 159.555 80.1474 159.555 79.7561C159.555 79.3648 159.493 79.0001 159.368 78.6621C159.244 78.3242 159.052 78.051 158.793 77.8426C158.533 77.6343 158.203 77.5301 157.802 77.5301C157.4 77.5301 157.07 77.6343 156.81 77.8426C156.551 78.051 156.359 78.3242 156.235 78.6621C156.11 79.0001 156.048 79.3648 156.048 79.7561C156.048 80.1474 156.11 80.5108 156.235 80.8462C156.359 81.1817 156.551 81.4523 156.81 81.6581C157.07 81.8639 157.4 81.9669 157.802 81.9669ZM162.727 74.8467V82.653H161.828V74.8467H162.727ZM165.274 74.8467V82.653H164.375V74.8467H165.274ZM169.377 82.7749C168.812 82.7749 168.326 82.6504 167.917 82.4014C167.51 82.1498 167.196 81.7991 166.975 81.3494C166.757 80.897 166.647 80.371 166.647 79.7713C166.647 79.1716 166.757 78.6431 166.975 78.1857C167.196 77.7257 167.504 77.3675 167.898 77.1108C168.294 76.8516 168.757 76.722 169.285 76.722C169.59 76.722 169.891 76.7728 170.188 76.8745C170.486 76.9761 170.756 77.1413 171 77.37C171.244 77.5962 171.439 77.896 171.584 78.2695C171.728 78.6431 171.801 79.103 171.801 79.6494V80.0305H167.288V79.253H170.886C170.886 78.9226 170.82 78.6278 170.688 78.3686C170.558 78.1095 170.373 77.9049 170.131 77.755C169.892 77.605 169.61 77.5301 169.285 77.5301C168.927 77.5301 168.617 77.619 168.355 77.7969C168.096 77.9722 167.896 78.2009 167.757 78.483C167.617 78.7651 167.547 79.0675 167.547 79.3902V79.9086C167.547 80.3507 167.623 80.7255 167.776 81.033C167.931 81.3379 168.145 81.5704 168.42 81.7305C168.694 81.8881 169.013 81.9669 169.377 81.9669C169.613 81.9669 169.826 81.9338 170.017 81.8678C170.21 81.7991 170.377 81.6975 170.516 81.5628C170.656 81.4256 170.764 81.2553 170.84 81.0521L171.709 81.296C171.618 81.5908 171.464 81.85 171.248 82.0736C171.032 82.2947 170.765 82.4675 170.448 82.592C170.13 82.7139 169.773 82.7749 169.377 82.7749ZM175.548 82.7749C174.999 82.7749 174.526 82.6453 174.13 82.3861C173.733 82.1269 173.428 81.7699 173.215 81.3151C173.001 80.8602 172.895 80.3405 172.895 79.7561C172.895 79.1615 173.004 78.6367 173.223 78.1819C173.444 77.7245 173.751 77.3675 174.145 77.1108C174.541 76.8516 175.004 76.722 175.532 76.722C175.944 76.722 176.315 76.7982 176.645 76.9507C176.976 77.1032 177.246 77.3166 177.457 77.5911C177.668 77.8655 177.799 78.1857 177.85 78.5516H176.95C176.882 78.2848 176.729 78.0485 176.493 77.8426C176.259 77.6343 175.944 77.5301 175.548 77.5301C175.197 77.5301 174.89 77.6216 174.625 77.8045C174.364 77.9849 174.159 78.2403 174.012 78.5707C173.867 78.8985 173.794 79.2834 173.794 79.7256C173.794 80.1779 173.865 80.5718 174.008 80.9072C174.153 81.2426 174.356 81.5031 174.618 81.6886C174.882 81.8741 175.192 81.9669 175.548 81.9669C175.781 81.9669 175.994 81.9262 176.184 81.8449C176.375 81.7636 176.536 81.6467 176.668 81.4942C176.8 81.3417 176.894 81.1588 176.95 80.9453H177.85C177.799 81.2909 177.673 81.6022 177.473 81.8792C177.274 82.1536 177.011 82.3722 176.684 82.5348C176.358 82.6949 175.98 82.7749 175.548 82.7749ZM181.711 76.7982V77.5606H178.677V76.7982H181.711ZM179.561 75.3956H180.461V80.9758C180.461 81.2299 180.498 81.4205 180.571 81.5476C180.648 81.6721 180.744 81.7559 180.861 81.7991C180.981 81.8398 181.106 81.8601 181.238 81.8601C181.338 81.8601 181.419 81.855 181.482 81.8449C181.546 81.8322 181.597 81.822 181.635 81.8144L181.818 82.6225C181.757 82.6453 181.672 82.6682 181.562 82.6911C181.453 82.7165 181.315 82.7292 181.147 82.7292C180.893 82.7292 180.644 82.6746 180.4 82.5653C180.158 82.456 179.958 82.2896 179.798 82.066C179.64 81.8423 179.561 81.5603 179.561 81.2198V75.3956ZM188.462 82.7749C187.933 82.7749 187.469 82.6491 187.07 82.3976C186.674 82.146 186.364 81.7941 186.14 81.3417C185.919 80.8894 185.809 80.3609 185.809 79.7561C185.809 79.1462 185.919 78.6139 186.14 78.159C186.364 77.7041 186.674 77.3509 187.07 77.0994C187.469 76.8478 187.933 76.722 188.462 76.722C188.99 76.722 189.453 76.8478 189.849 77.0994C190.248 77.3509 190.558 77.7041 190.779 78.159C191.003 78.6139 191.114 79.1462 191.114 79.7561C191.114 80.3609 191.003 80.8894 190.779 81.3417C190.558 81.7941 190.248 82.146 189.849 82.3976C189.453 82.6491 188.99 82.7749 188.462 82.7749ZM188.462 81.9669C188.863 81.9669 189.193 81.8639 189.453 81.6581C189.712 81.4523 189.904 81.1817 190.028 80.8462C190.153 80.5108 190.215 80.1474 190.215 79.7561C190.215 79.3648 190.153 79.0001 190.028 78.6621C189.904 78.3242 189.712 78.051 189.453 77.8426C189.193 77.6343 188.863 77.5301 188.462 77.5301C188.06 77.5301 187.73 77.6343 187.471 77.8426C187.211 78.051 187.019 78.3242 186.895 78.6621C186.77 79.0001 186.708 79.3648 186.708 79.7561C186.708 80.1474 186.77 80.5108 186.895 80.8462C187.019 81.1817 187.211 81.4523 187.471 81.6581C187.73 81.8639 188.06 81.9669 188.462 81.9669ZM192.488 82.653V76.7982H193.357V77.6825H193.418C193.524 77.3929 193.718 77.1578 193.997 76.9774C194.277 76.797 194.592 76.7068 194.942 76.7068C195.008 76.7068 195.091 76.708 195.19 76.7106C195.289 76.7131 195.364 76.7169 195.415 76.722V77.6368C195.384 77.6292 195.315 77.6178 195.205 77.6025C195.099 77.5847 194.986 77.5758 194.866 77.5758C194.582 77.5758 194.327 77.6355 194.104 77.755C193.883 77.8719 193.707 78.0345 193.578 78.2429C193.451 78.4487 193.387 78.6837 193.387 78.948V82.653H192.488ZM202.031 82.653H199.622V74.8467H202.138C202.895 74.8467 203.543 75.003 204.082 75.3155C204.62 75.6255 205.033 76.0715 205.321 76.6534C205.608 77.2328 205.751 77.9265 205.751 78.7346C205.751 79.5477 205.606 80.2478 205.317 80.8348C205.027 81.4192 204.605 81.869 204.051 82.1841C203.497 82.4967 202.824 82.653 202.031 82.653ZM200.567 81.8144H201.97C202.616 81.8144 203.15 81.6899 203.575 81.4408C203.999 81.1918 204.316 80.8373 204.524 80.3774C204.732 79.9175 204.836 79.3698 204.836 78.7346C204.836 78.1044 204.734 77.5618 204.528 77.107C204.322 76.6496 204.014 76.2989 203.605 76.055C203.196 75.8085 202.687 75.6852 202.077 75.6852H200.567V81.8144ZM207.215 82.653V76.7982H208.114V82.653H207.215ZM207.672 75.8225C207.497 75.8225 207.346 75.7627 207.219 75.6433C207.094 75.5239 207.032 75.3803 207.032 75.2126C207.032 75.0449 207.094 74.9013 207.219 74.7819C207.346 74.6624 207.497 74.6027 207.672 74.6027C207.848 74.6027 207.998 74.6624 208.122 74.7819C208.249 74.9013 208.313 75.0449 208.313 75.2126C208.313 75.3803 208.249 75.5239 208.122 75.6433C207.998 75.7627 207.848 75.8225 207.672 75.8225ZM213.909 78.1095L213.101 78.3382C213.05 78.2035 212.975 78.0726 212.876 77.9456C212.78 77.816 212.648 77.7092 212.48 77.6254C212.312 77.5415 212.097 77.4996 211.836 77.4996C211.477 77.4996 211.179 77.5822 210.94 77.7473C210.704 77.91 210.585 78.1171 210.585 78.3686C210.585 78.5923 210.667 78.7689 210.829 78.8985C210.992 79.0281 211.246 79.1361 211.592 79.2225L212.461 79.4359C212.984 79.563 213.374 79.7574 213.631 80.0191C213.888 80.2783 214.016 80.6124 214.016 81.0216C214.016 81.357 213.919 81.6568 213.726 81.9211C213.536 82.1854 213.269 82.3938 212.926 82.5462C212.583 82.6987 212.184 82.7749 211.729 82.7749C211.132 82.7749 210.637 82.6453 210.246 82.3861C209.855 82.1269 209.607 81.7483 209.503 81.2503L210.357 81.0368C210.438 81.3519 210.592 81.5882 210.818 81.7458C211.047 81.9033 211.345 81.9821 211.714 81.9821C212.133 81.9821 212.466 81.8932 212.712 81.7153C212.961 81.5349 213.086 81.3189 213.086 81.0673C213.086 80.864 213.015 80.6938 212.872 80.5565C212.73 80.4168 212.512 80.3126 212.217 80.244L211.241 80.0153C210.705 79.8882 210.311 79.6913 210.059 79.4245C209.81 79.1551 209.686 78.8184 209.686 78.4144C209.686 78.084 209.779 77.7918 209.964 77.5377C210.152 77.2836 210.408 77.0841 210.73 76.9393C211.055 76.7944 211.424 76.722 211.836 76.722C212.415 76.722 212.87 76.8491 213.2 77.1032C213.533 77.3573 213.769 77.6927 213.909 78.1095ZM215.37 84.8485V76.7982H216.239V77.7283H216.346C216.412 77.6266 216.503 77.497 216.62 77.3395C216.74 77.1794 216.91 77.0371 217.131 76.9126C217.355 76.7855 217.657 76.722 218.038 76.722C218.531 76.722 218.966 76.8453 219.342 77.0917C219.718 77.3382 220.011 77.6876 220.222 78.1399C220.433 78.5923 220.539 79.1259 220.539 79.7408C220.539 80.3609 220.433 80.8983 220.222 81.3532C220.011 81.8055 219.719 82.1562 219.346 82.4052C218.972 82.6517 218.541 82.7749 218.053 82.7749C217.677 82.7749 217.376 82.7127 217.15 82.5882C216.924 82.4611 216.75 82.3175 216.628 82.1574C216.506 81.9948 216.412 81.8601 216.346 81.7534H216.27V84.8485H215.37ZM216.254 79.7256C216.254 80.1678 216.319 80.5578 216.449 80.8958C216.578 81.2312 216.768 81.4942 217.017 81.6848C217.266 81.8728 217.571 81.9669 217.931 81.9669C218.307 81.9669 218.621 81.8678 218.873 81.6695C219.127 81.4688 219.318 81.1994 219.445 80.8615C219.574 80.521 219.639 80.1423 219.639 79.7256C219.639 79.3139 219.576 78.9429 219.448 78.6126C219.324 78.2797 219.135 78.0167 218.881 77.8236C218.629 77.6279 218.313 77.5301 217.931 77.5301C217.565 77.5301 217.258 77.6228 217.009 77.8083C216.76 77.9913 216.572 78.2479 216.445 78.5783C216.318 78.9061 216.254 79.2885 216.254 79.7256ZM222.81 74.8467V82.653H221.911V74.8467H222.81ZM226.181 82.7902C225.81 82.7902 225.473 82.7203 225.171 82.5805C224.868 82.4382 224.628 82.2337 224.45 81.9669C224.272 81.6975 224.183 81.3722 224.183 80.9911C224.183 80.6556 224.25 80.3837 224.382 80.1754C224.514 79.9645 224.69 79.7993 224.912 79.6799C225.133 79.5604 225.377 79.4715 225.643 79.413C225.913 79.3521 226.183 79.3038 226.455 79.2682C226.811 79.2225 227.099 79.1882 227.32 79.1653C227.544 79.1399 227.707 79.0979 227.808 79.0395C227.913 78.9811 227.965 78.8794 227.965 78.7346V78.7041C227.965 78.328 227.862 78.0358 227.656 77.8274C227.453 77.619 227.144 77.5148 226.73 77.5148C226.3 77.5148 225.964 77.6089 225.72 77.7969C225.476 77.9849 225.304 78.1857 225.205 78.3991L224.351 78.0942C224.504 77.7385 224.707 77.4615 224.961 77.2633C225.218 77.0625 225.497 76.9228 225.8 76.844C226.105 76.7627 226.404 76.722 226.699 76.722C226.887 76.722 227.103 76.7449 227.347 76.7906C227.594 76.8338 227.831 76.924 228.06 77.0612C228.291 77.1985 228.483 77.4056 228.636 77.6825C228.788 77.9595 228.864 78.3305 228.864 78.7956V82.653H227.965V81.8601H227.919C227.858 81.9872 227.756 82.1231 227.614 82.268C227.472 82.4128 227.282 82.5361 227.046 82.6377C226.81 82.7394 226.521 82.7902 226.181 82.7902ZM226.318 81.9821C226.674 81.9821 226.974 81.9122 227.218 81.7725C227.464 81.6327 227.65 81.4523 227.774 81.2312C227.901 81.0101 227.965 80.7776 227.965 80.5337V79.7104C227.927 79.7561 227.843 79.798 227.713 79.8361C227.586 79.8717 227.439 79.9035 227.271 79.9314C227.106 79.9568 226.944 79.9797 226.787 80C226.632 80.0178 226.506 80.0331 226.409 80.0458C226.176 80.0763 225.957 80.1258 225.754 80.1944C225.553 80.2605 225.391 80.3609 225.266 80.4956C225.144 80.6277 225.083 80.8081 225.083 81.0368C225.083 81.3494 225.199 81.5857 225.43 81.7458C225.664 81.9033 225.96 81.9821 226.318 81.9821ZM230.876 84.8485C230.723 84.8485 230.587 84.8358 230.468 84.8104C230.349 84.7875 230.266 84.7646 230.22 84.7417L230.449 83.9489C230.667 84.0048 230.861 84.0252 231.028 84.0099C231.196 83.9947 231.345 83.9197 231.474 83.785C231.606 83.6529 231.727 83.4382 231.836 83.1408L232.004 82.6834L229.839 76.7982H230.815L232.431 81.4637H232.492L234.108 76.7982H235.084L232.599 83.5068C232.487 83.8092 232.348 84.0595 232.183 84.2577C232.018 84.4584 231.826 84.6071 231.608 84.7036C231.392 84.8002 231.148 84.8485 230.876 84.8485Z" fill="white"/>
<path d="M328.037 50.3219C327.991 49.9357 327.806 49.6358 327.481 49.4224C327.155 49.2089 326.756 49.1022 326.284 49.1022C325.938 49.1022 325.636 49.1581 325.377 49.2699C325.12 49.3817 324.919 49.5355 324.774 49.7311C324.632 49.9268 324.561 50.1491 324.561 50.3982C324.561 50.6065 324.61 50.7857 324.71 50.9356C324.811 51.083 324.941 51.2062 325.098 51.3053C325.256 51.4019 325.421 51.4819 325.594 51.5455C325.767 51.6065 325.925 51.656 326.07 51.6941L326.863 51.9076C327.066 51.9609 327.293 52.0346 327.542 52.1287C327.793 52.2227 328.033 52.351 328.262 52.5136C328.493 52.6737 328.684 52.8795 328.834 53.1311C328.984 53.3827 329.059 53.6914 329.059 54.0574C329.059 54.4792 328.948 54.8603 328.727 55.2009C328.508 55.5414 328.188 55.812 327.766 56.0127C327.347 56.2135 326.838 56.3139 326.238 56.3139C325.679 56.3139 325.195 56.2236 324.786 56.0432C324.379 55.8628 324.059 55.6112 323.825 55.2885C323.594 54.9658 323.463 54.591 323.433 54.1641H324.408C324.434 54.4588 324.533 54.7028 324.706 54.8959C324.881 55.0865 325.102 55.2288 325.369 55.3228C325.638 55.4143 325.928 55.46 326.238 55.46C326.599 55.46 326.923 55.4016 327.21 55.2847C327.497 55.1653 327.725 55.0001 327.892 54.7892C328.06 54.5757 328.144 54.3267 328.144 54.0421C328.144 53.7829 328.071 53.572 327.927 53.4094C327.782 53.2467 327.591 53.1146 327.355 53.013C327.118 52.9113 326.863 52.8224 326.589 52.7461L325.628 52.4717C325.018 52.2964 324.535 52.0461 324.18 51.7208C323.824 51.3955 323.646 50.9699 323.646 50.4439C323.646 50.0068 323.764 49.6257 324.001 49.3004C324.239 48.9726 324.56 48.7185 324.961 48.5381C325.365 48.3551 325.816 48.2636 326.314 48.2636C326.817 48.2636 327.265 48.3538 327.656 48.5343C328.047 48.7121 328.357 48.9561 328.586 49.2661C328.817 49.5761 328.939 49.9281 328.952 50.3219H328.037ZM332.946 56.2986C332.381 56.2986 331.895 56.1741 331.486 55.9251C331.079 55.6735 330.765 55.3228 330.544 54.873C330.326 54.4207 330.216 53.8947 330.216 53.295C330.216 52.6953 330.326 52.1668 330.544 51.7094C330.765 51.2494 331.073 50.8911 331.467 50.6345C331.863 50.3753 332.326 50.2457 332.854 50.2457C333.159 50.2457 333.46 50.2965 333.757 50.3982C334.055 50.4998 334.325 50.665 334.569 50.8937C334.813 51.1198 335.008 51.4197 335.153 51.7932C335.297 52.1668 335.37 52.6267 335.37 53.173V53.5542H330.857V52.7766H334.455C334.455 52.4463 334.389 52.1515 334.257 51.8923C334.127 51.6331 333.942 51.4286 333.7 51.2787C333.461 51.1287 333.179 51.0538 332.854 51.0538C332.496 51.0538 332.186 51.1427 331.924 51.3206C331.665 51.4959 331.465 51.7246 331.326 52.0067C331.186 52.2887 331.116 52.5911 331.116 52.9139V53.4322C331.116 53.8744 331.192 54.2492 331.345 54.5567C331.5 54.8616 331.714 55.0941 331.989 55.2542C332.263 55.4118 332.582 55.4905 332.946 55.4905C333.182 55.4905 333.395 55.4575 333.586 55.3914C333.779 55.3228 333.945 55.2212 334.085 55.0865C334.225 54.9493 334.333 54.779 334.409 54.5757L335.278 54.8197C335.187 55.1145 335.033 55.3736 334.817 55.5973C334.601 55.8183 334.334 55.9911 334.017 56.1156C333.699 56.2376 333.342 56.2986 332.946 56.2986ZM336.738 56.1766V50.3219H337.607V51.2062H337.668C337.775 50.9165 337.968 50.6815 338.248 50.5011C338.527 50.3207 338.842 50.2304 339.193 50.2304C339.259 50.2304 339.342 50.2317 339.441 50.2343C339.54 50.2368 339.615 50.2406 339.666 50.2457V51.1605C339.635 51.1529 339.565 51.1414 339.456 51.1262C339.349 51.1084 339.236 51.0995 339.117 51.0995C338.832 51.0995 338.578 51.1592 338.354 51.2787C338.133 51.3955 337.958 51.5582 337.828 51.7665C337.701 51.9724 337.638 52.2074 337.638 52.4717V56.1766H336.738ZM345.697 50.3219L343.532 56.1766H342.618L340.453 50.3219H341.428L343.045 54.9874H343.106L344.722 50.3219H345.697ZM349.13 56.2986C348.566 56.2986 348.079 56.1741 347.67 55.9251C347.263 55.6735 346.95 55.3228 346.729 54.873C346.51 54.4207 346.401 53.8947 346.401 53.295C346.401 52.6953 346.51 52.1668 346.729 51.7094C346.95 51.2494 347.257 50.8911 347.651 50.6345C348.047 50.3753 348.51 50.2457 349.038 50.2457C349.343 50.2457 349.644 50.2965 349.942 50.3982C350.239 50.4998 350.51 50.665 350.754 50.8937C350.998 51.1198 351.192 51.4197 351.337 51.7932C351.482 52.1668 351.554 52.6267 351.554 53.173V53.5542H347.041V52.7766H350.639C350.639 52.4463 350.573 52.1515 350.441 51.8923C350.311 51.6331 350.126 51.4286 349.885 51.2787C349.646 51.1287 349.364 51.0538 349.038 51.0538C348.68 51.0538 348.37 51.1427 348.108 51.3206C347.849 51.4959 347.65 51.7246 347.51 52.0067C347.37 52.2887 347.3 52.5911 347.3 52.9139V53.4322C347.3 53.8744 347.377 54.2492 347.529 54.5567C347.684 54.8616 347.899 55.0941 348.173 55.2542C348.448 55.4118 348.767 55.4905 349.13 55.4905C349.366 55.4905 349.58 55.4575 349.77 55.3914C349.963 55.3228 350.13 55.2212 350.27 55.0865C350.409 54.9493 350.517 54.779 350.594 54.5757L351.463 54.8197C351.371 55.1145 351.217 55.3736 351.001 55.5973C350.785 55.8183 350.519 55.9911 350.201 56.1156C349.883 56.2376 349.526 56.2986 349.13 56.2986ZM352.922 56.1766V50.3219H353.792V51.2062H353.853C353.959 50.9165 354.152 50.6815 354.432 50.5011C354.711 50.3207 355.027 50.2304 355.377 50.2304C355.443 50.2304 355.526 50.2317 355.625 50.2343C355.724 50.2368 355.799 50.2406 355.85 50.2457V51.1605C355.819 51.1529 355.749 51.1414 355.64 51.1262C355.533 51.1084 355.42 51.0995 355.301 51.0995C355.016 51.0995 354.762 51.1592 354.539 51.2787C354.318 51.3955 354.142 51.5582 354.013 51.7665C353.886 51.9724 353.822 52.2074 353.822 52.4717V56.1766H352.922Z" fill="white"/>
<path opacity="0.4" d="M5.82178 233.657V176.411" stroke="white" stroke-width="0.715576" stroke-dasharray="0.72 0.72"/>
<path opacity="0.4" d="M138.204 132.761V75.873" stroke="white" stroke-width="0.715576" stroke-dasharray="0.72 0.72"/>
<path opacity="0.4" d="M314.236 106.285V49.0389" stroke="white" stroke-width="0.715576" stroke-dasharray="0.72 0.72"/>
<path d="M94.1956 291.619L159.313 253.694" stroke="white" stroke-width="0.715576" stroke-dasharray="0.72 0.72"/>
<path d="M247.033 202.614L292.335 176.252" stroke="white" stroke-width="0.715576" stroke-dasharray="0.72 0.72"/>
</g>
<defs>
<clipPath id="clip0_2_168">
<rect width="359.22" height="495" fill="white" transform="translate(0.097168 0.468994)"/>
</clipPath>
</defs>
</svg>
