<svg width="114" height="129" viewBox="0 0 114 129" fill="none" xmlns="http://www.w3.org/2000/svg">
<path d="M81.7938 20.2042L62.5224 31.3433C60.3268 32.6123 58.9745 34.9558 58.9745 37.4916V59.6084C58.9745 62.1296 60.3114 64.4618 62.487 65.7361L81.7585 77.0237C83.9753 78.3222 86.7206 78.3222 88.9374 77.0237L108.209 65.7361C110.384 64.4618 111.721 62.1296 111.721 59.6084V37.4916C111.721 34.9558 110.369 32.6123 108.173 31.3433L88.902 20.2042C86.7031 18.9332 83.9928 18.9332 81.7938 20.2042Z" fill="#6633EE" stroke="white" stroke-width="0.887695"/>
<path d="M59.4709 34.2167L85.3481 48.7901L111.035 33.6643" stroke="white" stroke-opacity="0.3" stroke-width="0.665771" stroke-linecap="round" stroke-linejoin="bevel"/>
<path d="M85.348 48.7649V78.0445" stroke="white" stroke-opacity="0.3" stroke-width="0.665771" stroke-linecap="round"/>
<path d="M25.6724 52.6346L6.40087 63.7738C4.20532 65.0429 2.85309 67.3863 2.85309 69.9221V92.0388C2.85309 94.5601 4.18992 96.8919 6.36553 98.1667L25.6371 109.455C27.8538 110.752 30.599 110.752 32.8159 109.455L52.0874 98.1667C54.263 96.8919 55.5999 94.5601 55.5999 92.0388V69.9221C55.5999 67.3863 54.2476 65.0429 52.052 63.7738L32.7806 52.6346C30.5816 51.3636 27.8713 51.3636 25.6724 52.6346Z" fill="white" fill-opacity="0.1" stroke="white" stroke-width="0.887695"/>
<path d="M3.76764 66.4343L29.2263 81.221L54.685 66.4343" stroke="white" stroke-opacity="0.4" stroke-width="0.665771" stroke-linecap="round" stroke-linejoin="bevel"/>
<path d="M29.2264 81.2212V110.337" stroke="white" stroke-opacity="0.4" stroke-width="0.665771" stroke-linecap="round"/>
<path d="M72.2377 57.7079C73.0397 58.1709 73.6898 57.7955 73.6897 56.8695C73.6897 55.9435 73.0396 54.8175 72.2376 54.3545C71.4357 53.8915 70.7856 54.2668 70.7856 55.1928C70.7857 56.1188 71.4358 57.2448 72.2377 57.7079Z" fill="white"/>
<path d="M72.2368 56.0317L54.9368 66.0989" stroke="white" stroke-width="0.665771"/>
</svg>
