<svg width="175" height="77" viewBox="0 0 175 77" fill="none" xmlns="http://www.w3.org/2000/svg">
<g id="resly.svg">
<g id="Clip path group">
<mask id="mask0_2_134" style="mask-type:luminance" maskUnits="userSpaceOnUse" x="62" y="27" width="51" height="21">
<g id="clip0_3134_2172">
<path id="Vector" d="M112.746 27.34H62.87V47.7775H112.746V27.34Z" fill="white"/>
</g>
</mask>
<g mask="url(#mask0_2_134)">
<g id="Group">
<path id="Vector_2" d="M66.112 43.2862H62.9551C62.9138 43.2256 62.8687 43.1909 62.87 43.1574C62.8945 40.7337 62.8223 38.3025 62.9795 35.8868C63.1459 33.3382 65.0035 31.5257 67.6139 31.1079C68.3074 30.9984 69.0125 30.9688 69.7693 30.8953V34.247C69.5115 34.247 69.2537 34.247 69.0075 34.247C66.834 34.2779 66.1288 34.9844 66.1146 37.1746C66.1044 38.9574 66.1146 40.7403 66.1146 42.5217L66.112 43.2862Z" fill="white"/>
<path id="Vector_3" d="M100.798 30.9443C100.875 31.2099 100.914 31.3735 100.97 31.5321C102.312 35.3753 103.654 39.2178 104.997 43.0593C105.454 44.3704 104.952 45.0807 103.557 45.1218C103.224 45.1309 102.89 45.1218 102.559 45.1218V47.7826C103.512 47.7388 104.423 47.7182 105.332 47.6537C106.374 47.5764 107.061 46.9601 107.523 46.0719C107.741 45.6539 107.928 45.2205 108.083 44.7751C109.124 41.7139 110.158 38.6493 111.184 35.5812C111.7 34.0627 112.216 32.5454 112.747 30.9585C111.901 30.9585 111.134 30.9469 110.367 30.9585C109.684 30.9713 109.248 31.322 109.061 31.9834C108.816 32.8496 108.565 33.7133 108.315 34.5782C107.842 36.2154 107.367 37.8514 106.854 39.6238C106.754 39.2964 106.695 39.1147 106.642 38.9303C105.927 36.4359 105.207 33.944 104.471 31.4599C104.412 31.2614 104.194 30.9701 104.039 30.9637C102.992 30.9184 101.942 30.9443 100.798 30.9443ZM93.8987 34.6981C93.8987 33.498 93.3393 32.3417 92.4704 31.6959C90.6567 30.3462 87.0445 30.2868 85.205 31.6147C84.0449 32.4512 83.5834 33.6423 83.7135 35.0475C83.8322 36.3108 84.5953 37.1166 85.7194 37.5857C86.3937 37.8582 87.0822 38.094 87.7819 38.2921C88.6238 38.5397 89.4887 38.7099 90.3215 38.9793C90.7521 39.1185 91.1439 39.3996 91.095 39.9577C91.0525 40.485 90.6786 40.7247 90.2325 40.8872C88.58 41.4917 87.2431 40.9077 86.4735 39.2538H83.4699C83.3037 41.0057 84.1983 42.4509 85.8315 43.0786C87.1696 43.5943 88.5618 43.5943 89.9568 43.4654C91.0176 43.3725 92.0373 43.1341 92.9087 42.4818C94.0857 41.6 94.4725 40.365 94.3604 38.9587C94.2533 37.6257 93.4321 36.8251 92.232 36.3934C91.4882 36.1264 90.7185 35.9345 89.9606 35.7049C89.1214 35.4471 88.2667 35.2318 87.4559 34.9056C87.2109 34.8077 86.9402 34.3901 86.9544 34.1323C86.9685 33.8744 87.2508 33.5045 87.51 33.373C88.5735 32.8379 89.9296 33.1899 90.7225 34.0794C90.9532 34.3372 91.2857 34.6273 91.599 34.662C92.3609 34.751 93.1344 34.6943 93.8987 34.6943V34.6981ZM96.0168 27.3593V43.2811H99.2073C99.2229 43.0593 99.246 42.8711 99.246 42.6829C99.246 38.1778 99.246 33.6733 99.246 29.1691C99.2475 28.9759 99.2342 28.7828 99.2061 28.5917C99.1042 27.9471 98.6169 27.4224 97.9787 27.3709C97.3407 27.3192 96.7013 27.3554 96.0168 27.3554V27.3593ZM66.1095 43.2901V42.5269C66.1095 40.7453 66.1018 38.9625 66.1095 37.1797C66.1236 34.9882 66.8289 34.2831 69.0023 34.2521C69.2537 34.2521 69.5037 34.2521 69.7641 34.2521V30.9004C69.0074 30.9739 68.3023 31.0036 67.6088 31.1131C64.9983 31.5309 63.1407 33.3433 62.9744 35.8918C62.8171 38.3077 62.8893 40.7389 62.8648 43.1624C62.8648 43.1973 62.9087 43.232 62.95 43.2913L66.1095 43.2901Z" fill="white"/>
<path id="Vector_4" d="M100.798 30.9443C101.942 30.9443 102.99 30.9224 104.039 30.9663C104.194 30.9727 104.412 31.264 104.471 31.4625C105.207 33.948 105.921 36.4397 106.64 38.9303C106.693 39.1147 106.752 39.2965 106.853 39.6239C107.369 37.8514 107.841 36.2154 108.314 34.5783C108.564 33.7133 108.815 32.8496 109.06 31.9834C109.247 31.322 109.683 30.9713 110.366 30.9585C111.139 30.9443 111.9 30.9585 112.746 30.9585C112.209 32.5454 111.695 34.0627 111.183 35.5812C110.152 38.6467 109.118 41.7113 108.082 44.7751C107.927 45.2205 107.74 45.6539 107.522 46.072C107.061 46.9601 106.374 47.5764 105.331 47.6538C104.428 47.7208 103.51 47.7414 102.558 47.7826V45.1244C102.889 45.1244 103.223 45.1322 103.555 45.1244C104.95 45.0845 105.453 44.3742 104.995 43.0619C103.657 39.2178 102.315 35.3754 100.968 31.5347C100.914 31.3697 100.875 31.2021 100.798 30.9443Z" fill="white"/>
<path id="Vector_5" d="M93.8988 34.6944C93.1344 34.6944 92.3609 34.751 91.6042 34.6673C91.2909 34.6325 90.9596 34.3424 90.7276 34.0846C89.9349 33.1951 88.5786 32.8431 87.5152 33.3782C87.2573 33.5071 86.9724 33.8706 86.9596 34.1375C86.9466 34.4043 87.2173 34.8077 87.461 34.9109C88.2718 35.2371 89.1265 35.4549 89.9658 35.7101C90.7237 35.9397 91.4933 36.1317 92.2372 36.3986C93.4373 36.8304 94.2585 37.631 94.3654 38.9639C94.4776 40.3703 94.0909 41.6052 92.914 42.487C92.0425 43.1393 91.0228 43.3777 89.9618 43.4706C88.5619 43.5995 87.1697 43.5918 85.8367 43.0838C84.2035 42.4561 83.3087 41.0109 83.4751 39.259H86.4825C87.256 40.913 88.589 41.4969 90.2416 40.8924C90.6876 40.73 91.0615 40.4902 91.104 39.9629C91.1505 39.4048 90.7585 39.1237 90.3305 38.9845C89.4978 38.7151 88.6329 38.5449 87.791 38.2974C87.0913 38.0993 86.4027 37.8634 85.7284 37.5909C84.6043 37.1218 83.8412 36.316 83.7225 35.0527C83.5936 33.6476 84.0551 32.4565 85.2141 31.6199C87.0537 30.292 90.6657 30.3514 92.4795 31.7011C93.3393 32.3379 93.8988 33.4941 93.8988 34.6944Z" fill="white"/>
<path id="Vector_6" d="M96.0167 27.3555C96.7012 27.3555 97.3445 27.3156 97.9787 27.3671C98.613 27.4186 99.1041 27.9459 99.2059 28.5879C99.2341 28.7791 99.2475 28.9721 99.2458 29.1655C99.2458 33.6695 99.2458 38.1742 99.2458 42.6791C99.2458 42.8673 99.2227 43.0555 99.2073 43.2773H96.0167V27.3555Z" fill="white"/>
<path id="Vector_7" d="M82.1667 37.9442C82.1667 37.2996 82.1976 36.6989 82.1667 36.1071C81.9604 32.6911 79.9752 30.7702 76.5552 30.6736C73.6623 30.5924 71.6255 32.1123 71.0803 34.9573C70.8707 36.1367 70.832 37.3402 70.9655 38.5308C71.1822 40.6757 72.1748 42.429 74.3173 43.156C76.5358 43.9076 78.6912 43.6845 80.5398 42.0861C81.3132 41.4169 81.7824 40.5482 82.0003 39.4898C81.2603 39.4898 80.5965 39.5066 79.9377 39.4898C79.6602 39.4684 79.3816 39.5139 79.1254 39.6228C78.8691 39.7317 78.643 39.9005 78.4656 40.1151C77.812 40.8627 76.4172 41.0574 75.4852 40.5959C74.6124 40.1628 74.0787 39.0489 74.2515 37.9492L82.1667 37.9442ZM74.1844 35.8326C74.1483 34.9831 74.4153 34.2689 75.1062 33.7868C75.9312 33.2106 76.8503 33.1989 77.7269 33.6463C78.6036 34.0936 78.784 34.9147 78.8432 35.8378L74.1844 35.8326Z" fill="white"/>
</g>
</g>
</g>
</g>
</svg>
