<svg width="175" height="78" viewBox="0 0 175 78" fill="none" xmlns="http://www.w3.org/2000/svg">
<g id="safety-wing.svg">
<path id="Vector" d="M47.0654 30.119L47.1835 35.0424H46.7546C46.6038 33.9111 46.0785 32.8628 45.2627 32.0646C44.5903 31.3628 43.667 30.956 42.6953 30.9333C42.3864 30.9203 42.078 30.9685 41.7878 31.0752C41.4975 31.1819 41.2313 31.3449 41.0045 31.5549C40.8117 31.7273 40.6569 31.9379 40.5498 32.1734C40.4428 32.4088 40.3859 32.664 40.3827 32.9226C40.3769 33.2268 40.452 33.5271 40.6003 33.7928C40.8603 34.1776 41.1917 34.5089 41.5763 34.7688C42.298 35.2422 43.0474 35.672 43.8205 36.0557C45.0932 36.6178 46.236 37.4368 47.1773 38.4614C47.7451 39.2052 48.0472 40.118 48.0352 41.0536C48.0407 41.6527 47.9201 42.2462 47.6814 42.7955C47.4425 43.345 47.0907 43.838 46.6489 44.2426C46.1806 44.6878 45.6282 45.0352 45.0241 45.2648C44.42 45.4942 43.7763 45.6011 43.1305 45.5791C42.7119 45.5793 42.2947 45.5313 41.8872 45.4362C41.3734 45.3009 40.8723 45.1221 40.389 44.9016C40.1301 44.7868 39.8515 44.7236 39.5684 44.715C39.3576 44.7248 39.1553 44.801 38.9903 44.9326C38.7682 45.1046 38.5981 45.3348 38.4992 45.5978H38.1138V40.0031H38.4992C38.6969 41.3555 39.317 42.6109 40.2709 43.5899C41.0133 44.3604 42.0296 44.8071 43.0993 44.8332C43.7845 44.8669 44.4551 44.6278 44.9643 44.168C45.3183 43.8547 45.554 43.4295 45.632 42.9634C45.7101 42.4972 45.6258 42.0184 45.3932 41.6069C45.1872 41.2462 44.9126 40.9296 44.5851 40.6744C43.9815 40.2327 43.3385 39.8478 42.6642 39.5243C41.6845 39.0538 40.7536 38.4874 39.8854 37.8334C39.3491 37.4022 38.9051 36.8674 38.58 36.2607C38.2793 35.6853 38.1236 35.0451 38.1262 34.3959C38.1165 33.8359 38.2218 33.28 38.4356 32.7625C38.6495 32.2449 38.9674 31.7767 39.3694 31.3871C39.7767 30.9806 40.2622 30.6608 40.7963 30.4472C41.3305 30.2336 41.9025 30.1303 42.4777 30.1438C42.9299 30.1342 43.3813 30.1844 43.8205 30.293C44.2503 30.4118 44.667 30.5743 45.0637 30.7779C45.3673 30.9585 45.7029 31.0789 46.0521 31.1323C46.1321 31.1364 46.2118 31.1229 46.2859 31.0928C46.36 31.0628 46.4267 31.0167 46.481 30.9581C46.6384 30.7031 46.7381 30.4167 46.7733 30.119H47.0654ZM53.9843 43.7267C52.7908 44.8248 51.7215 45.3741 50.7766 45.3741C50.5176 45.3807 50.2599 45.3333 50.0201 45.2348C49.7803 45.1363 49.5638 44.9889 49.3841 44.8021C49.2014 44.6126 49.0583 44.3886 48.9632 44.143C48.8683 43.8975 48.8233 43.6355 48.8309 43.3723C48.8369 42.9753 48.9258 42.5839 49.0916 42.2232C49.2575 41.8625 49.4969 41.5403 49.7945 41.2774C50.4368 40.6557 51.8335 39.8269 53.9843 38.7909V37.7652C54.014 37.2771 53.9742 36.7873 53.8662 36.3104C53.7718 36.0942 53.6134 35.9119 53.4123 35.7883C53.19 35.6394 52.9278 35.5613 52.6602 35.5645C52.2629 35.5483 51.8709 35.6593 51.5412 35.8815C51.4608 35.9292 51.3936 35.9964 51.346 36.0768C51.2981 36.157 51.2713 36.2482 51.2678 36.3415C51.2981 36.5577 51.4013 36.7572 51.5599 36.9072C51.7956 37.1508 51.9366 37.4703 51.9577 37.8087C51.9596 37.9777 51.9269 38.1455 51.8617 38.3015C51.7965 38.4576 51.7002 38.5988 51.5785 38.7162C51.4454 38.8427 51.2882 38.9409 51.1162 39.0049C50.9442 39.0691 50.761 39.0977 50.5776 39.0893C50.1705 39.0999 49.7754 38.9504 49.4774 38.6727C49.3389 38.552 49.2278 38.403 49.1517 38.2357C49.0755 38.0683 49.0361 37.8867 49.036 37.7029C49.0551 37.1448 49.2759 36.6125 49.6577 36.2049C50.0922 35.7045 50.6523 35.329 51.2801 35.1169C51.9942 34.8737 52.7451 34.7558 53.4994 34.7688C54.2813 34.728 55.055 34.9466 55.7 35.3905C56.1774 35.7194 56.5436 36.1855 56.7506 36.727C56.8712 37.4078 56.913 38.1004 56.8748 38.7909V42.7444C56.8612 43.0375 56.8778 43.3313 56.9246 43.6209C56.9487 43.7235 57.0028 43.8167 57.08 43.8883C57.1476 43.9456 57.2339 43.9766 57.3224 43.9753C57.5049 43.9753 57.6892 43.8406 57.8757 43.5712L58.1865 43.8324C57.9102 44.2921 57.5419 44.69 57.105 45.001C56.7348 45.2412 56.3029 45.3686 55.8617 45.3678C55.391 45.3953 54.9265 45.2494 54.5562 44.9576C54.2177 44.6337 54.0136 44.1943 53.9843 43.7267ZM53.9843 42.931V39.5182C53.2574 39.9378 52.623 40.5003 52.1193 41.1717C51.8629 41.5155 51.7196 41.9304 51.7091 42.359C51.7072 42.6871 51.8318 43.0033 52.0572 43.2418C52.1504 43.3415 52.2644 43.4194 52.3913 43.47C52.5181 43.5204 52.6545 43.5423 52.7908 43.534C53.2465 43.4777 53.6686 43.2645 53.9843 42.931ZM62.5318 36.0929V43.1796C62.4837 43.6198 62.5569 44.0647 62.7431 44.4664C62.908 44.6198 63.1057 44.7331 63.3214 44.7979C63.5369 44.8626 63.7645 44.8768 63.9864 44.8394V45.231H58.2115V44.8394C58.5319 44.8559 58.8521 44.8029 59.1501 44.684C59.3223 44.598 59.4572 44.4521 59.5293 44.2737C59.6201 43.9186 59.6559 43.5517 59.635 43.1859V36.1115H58.2115V35.0424H59.635V34.2901V33.7804C59.6215 33.2916 59.712 32.8054 59.9007 32.3542C60.0893 31.903 60.3717 31.497 60.7291 31.1633C61.5474 30.436 62.6197 30.0607 63.713 30.119C64.3875 30.0679 65.0598 30.2453 65.6214 30.6224C65.804 30.7472 65.9552 30.9126 66.0631 31.1057C66.1709 31.2988 66.2325 31.5143 66.243 31.7352C66.2435 31.8965 66.2095 32.056 66.143 32.2029C66.0765 32.3499 65.9792 32.4809 65.8577 32.5869C65.5755 32.8357 65.2076 32.965 64.8318 32.9474C64.5172 32.9631 64.2085 32.8586 63.9679 32.6553C63.8714 32.5754 63.7932 32.4758 63.7386 32.3633C63.6839 32.2506 63.654 32.1277 63.6508 32.0025C63.6608 31.8664 63.6816 31.7312 63.713 31.5985C63.7403 31.4843 63.7549 31.3676 63.7564 31.2504C63.7616 31.1887 63.753 31.1267 63.7316 31.0686C63.7101 31.0107 63.6762 30.9581 63.6322 30.9147C63.5782 30.8613 63.5142 30.8194 63.4436 30.7916C63.373 30.764 63.2977 30.7508 63.2219 30.7531C63.1222 30.7525 63.0238 30.776 62.9351 30.8213C62.8464 30.8669 62.77 30.9329 62.7121 31.0141C62.5548 31.2643 62.4829 31.5587 62.507 31.8533V33.7618V35.061H63.9492V36.1302L62.5318 36.0929ZM72.6086 39.7419H67.2439C67.2406 40.8924 67.6043 42.0139 68.282 42.9434C68.4797 43.2195 68.7399 43.4452 69.0413 43.6019C69.3427 43.7584 69.6768 43.8417 70.0164 43.8448C70.4271 43.8616 70.8324 43.746 71.1727 43.5153C71.6099 43.1571 71.9767 42.7209 72.2543 42.2285L72.6086 42.471C72.2271 43.4008 71.623 44.2226 70.8493 44.8642C70.4199 45.1618 69.9355 45.3709 69.4244 45.4798C68.9135 45.5887 68.3859 45.5951 67.8724 45.4985C67.3589 45.4019 66.8697 45.2043 66.4332 44.9172C65.9967 44.6301 65.6214 44.2593 65.3292 43.8261C64.6979 42.7752 64.3848 41.5638 64.4279 40.3387C64.3505 38.8683 64.8224 37.4214 65.7519 36.2794C66.1246 35.8118 66.5971 35.4334 67.1349 35.1721C67.6728 34.9107 68.2622 34.7729 68.8601 34.7688C69.3559 34.7695 69.845 34.8816 70.2917 35.0967C70.7382 35.312 71.1306 35.6248 71.44 36.0121C72.238 37.0884 72.6497 38.4026 72.6086 39.7419ZM70.0351 39.0146C70.066 38.2167 70.0055 37.4179 69.8547 36.6338C69.7717 36.2583 69.5818 35.915 69.3077 35.6453C69.145 35.5078 68.9362 35.4367 68.7234 35.4463C68.5391 35.4496 68.359 35.5028 68.2024 35.6002C68.0459 35.6976 67.9187 35.8356 67.8344 35.9997C67.3804 36.8101 67.1649 37.7325 67.2128 38.6603V39.0395L70.0351 39.0146ZM76.6618 31.3187V35.0485H78.9805V36.1241H76.6618V42.4087C76.6532 42.7908 76.6886 43.1725 76.7674 43.5464C76.8149 43.711 76.9127 43.8567 77.0472 43.9629C77.1454 44.0398 77.2645 44.0851 77.3891 44.0935C77.8407 44.0935 78.2698 43.735 78.6758 43.018L78.9867 43.2604C78.4231 44.6529 77.5072 45.3491 76.239 45.3491C75.7062 45.3536 75.1862 45.187 74.7552 44.8736C74.3244 44.5602 74.0056 44.1168 73.8457 43.6085C73.7457 42.9464 73.7083 42.2762 73.7337 41.6069V36.1241H72.4594V35.7447C73.2807 35.1504 74.0334 34.4666 74.7036 33.7058C75.333 32.9755 75.8755 32.1744 76.3198 31.3187H76.6618ZM83.3505 45.6165L80.1927 38.0946C79.9258 37.3615 79.5731 36.6625 79.142 36.0121C78.9254 35.7563 78.6411 35.5667 78.3216 35.465V35.061H83.5184V35.465C83.2621 35.4529 83.0088 35.525 82.7974 35.6702C82.7311 35.7244 82.6779 35.7928 82.6414 35.8702C82.6047 35.9476 82.5859 36.0322 82.5859 36.1178C82.6724 36.6869 82.8486 37.2389 83.1082 37.7527L84.7803 41.7374L85.9179 38.6291C86.2382 37.902 86.4478 37.1309 86.5396 36.3415C86.5422 36.226 86.5209 36.1111 86.4771 36.0042C86.4332 35.8972 86.3678 35.8005 86.2847 35.7199C86.0216 35.5303 85.7009 35.438 85.3771 35.4589V35.0548H88.647V35.4589C88.347 35.485 88.0675 35.6225 87.8637 35.8442C87.4314 36.5524 87.0907 37.3128 86.8504 38.107L84.0593 45.6413C83.6707 46.8593 83.1452 48.0293 82.4927 49.1287C82.2857 49.4142 82.0137 49.6459 81.6991 49.8049C81.3843 49.9638 81.0362 50.0453 80.6837 50.0425C80.4229 50.0568 80.162 50.0186 79.9164 49.93C79.6707 49.8413 79.4455 49.7041 79.2539 49.5266C79.0817 49.3688 78.9445 49.1767 78.8514 48.9625C78.7582 48.7483 78.7111 48.5168 78.7131 48.2833C78.6999 47.9004 78.8333 47.5268 79.0862 47.2389C79.1985 47.1066 79.3387 47.0008 79.4966 46.9287C79.6545 46.8567 79.8264 46.8205 79.9999 46.8224C80.1567 46.8165 80.3128 46.8446 80.4577 46.9047C80.6025 46.9648 80.7326 47.0555 80.8392 47.1705C81.0763 47.477 81.1934 47.8594 81.1686 48.2459C81.1558 48.4291 81.1878 48.6126 81.2618 48.7806C81.2887 48.8196 81.325 48.8509 81.3676 48.8716C81.4101 48.8923 81.4572 48.9016 81.5044 48.8987C81.6106 48.8862 81.7132 48.8516 81.8053 48.7969C81.8974 48.7423 81.977 48.669 82.0389 48.5817C82.4815 47.9457 82.8136 47.2395 83.0211 46.493L83.3505 45.6165ZM110.448 30.4547V30.8587C110.207 30.8719 109.975 30.9515 109.777 31.0887C109.57 31.2549 109.406 31.468 109.298 31.7104C109.256 31.7974 109.037 32.361 108.639 33.4012L104.194 45.5915H103.784L100.272 36.0681L96.4051 45.5667H96.0383L91.3511 33.5255C91.0876 32.763 90.7546 32.0265 90.3565 31.3249C90.2403 31.1854 90.0949 31.073 89.9306 30.9957C89.7663 30.9184 89.587 30.878 89.4054 30.8773V30.4547H95.5534V30.8587C95.2074 30.8335 94.8622 30.9159 94.565 31.0949C94.4864 31.1586 94.4233 31.2392 94.3802 31.3306C94.3372 31.4222 94.3153 31.5222 94.3164 31.6233C94.4048 32.2283 94.5763 32.8182 94.8261 33.3763L97.6047 40.5439L99.8302 34.949L99.2459 33.3826C99.0506 32.7907 98.8096 32.215 98.5248 31.6606C98.3776 31.4011 98.1627 31.1864 97.9031 31.0389C97.5895 30.8971 97.2461 30.8332 96.9024 30.8525V30.4547H103.771V30.8587C103.422 30.848 103.072 30.8878 102.733 30.9768C102.593 31.022 102.471 31.1114 102.385 31.2317C102.296 31.3564 102.25 31.5071 102.255 31.6606C102.358 32.1875 102.517 32.702 102.727 33.196L105.363 40.1771L107.675 33.8488C107.848 33.4094 107.997 32.9611 108.123 32.5061C108.175 32.2881 108.202 32.0649 108.204 31.8409C108.211 31.7094 108.188 31.5781 108.137 31.4565C108.087 31.335 108.01 31.2263 107.912 31.1384C107.578 30.9293 107.186 30.8314 106.793 30.8587V30.4547H110.448ZM113.736 35.0424V43.1236C113.683 43.5974 113.767 44.0764 113.979 44.5037C114.103 44.6225 114.251 44.7142 114.412 44.7731C114.574 44.8319 114.746 44.8566 114.917 44.8456V45.2373H109.64V44.8394C109.819 44.8476 109.998 44.8168 110.164 44.7492C110.331 44.6815 110.48 44.5788 110.603 44.4477C110.793 44.0317 110.866 43.5719 110.815 43.1175V37.1684C110.868 36.6947 110.784 36.2156 110.572 35.7883C110.449 35.6703 110.302 35.5791 110.142 35.5202C109.981 35.4613 109.81 35.4363 109.64 35.4463V35.0424H113.736ZM112.269 30.1066C112.485 30.1032 112.7 30.1457 112.898 30.2314C113.096 30.3172 113.274 30.4441 113.419 30.6039C113.573 30.7618 113.694 30.9486 113.775 31.1535C113.856 31.3583 113.895 31.5771 113.892 31.7974C113.896 32.0172 113.855 32.2356 113.773 32.4396C113.691 32.6436 113.568 32.829 113.413 32.9847C113.267 33.1415 113.09 33.2662 112.893 33.3508C112.696 33.4354 112.484 33.4779 112.269 33.4758C112.056 33.4782 111.844 33.4358 111.648 33.3512C111.452 33.2666 111.276 33.1417 111.132 32.9847C110.978 32.828 110.857 32.6423 110.776 32.4385C110.695 32.2347 110.655 32.0167 110.659 31.7974C110.655 31.5771 110.695 31.3583 110.776 31.1535C110.858 30.9486 110.978 30.7618 111.132 30.6039C111.275 30.445 111.451 30.3186 111.647 30.2329C111.843 30.1472 112.055 30.1041 112.269 30.1066ZM118.809 35.0424V36.3602C119.218 35.8693 119.705 35.4492 120.251 35.1169C120.704 34.8614 121.217 34.7286 121.737 34.7316C122.313 34.7101 122.876 34.9053 123.316 35.2786C123.73 35.637 124.023 36.1147 124.155 36.6462C124.298 37.4334 124.354 38.2339 124.323 39.0333V42.9994C124.274 43.4978 124.344 44.0007 124.528 44.4664C124.638 44.5822 124.77 44.6743 124.916 44.7374C125.063 44.8005 125.22 44.833 125.38 44.8332V45.2249H120.407V44.8394C120.567 44.8278 120.724 44.7784 120.862 44.6953C121 44.6122 121.117 44.4974 121.202 44.3608C121.353 43.9279 121.41 43.4682 121.37 43.0118V38.4986C121.393 37.9705 121.362 37.4415 121.277 36.9198C121.227 36.7227 121.116 36.5467 120.96 36.4162C120.82 36.2998 120.644 36.2359 120.463 36.2359C119.862 36.2359 119.304 36.6835 118.79 37.5787V43.0367C118.744 43.5288 118.814 44.0251 118.995 44.485C119.088 44.5987 119.203 44.6913 119.334 44.7567C119.464 44.8221 119.608 44.8588 119.754 44.8642V45.2559H114.781V44.8394C114.948 44.8352 115.112 44.796 115.263 44.7243C115.414 44.6525 115.548 44.5499 115.657 44.4229C115.824 43.9703 115.886 43.4855 115.838 43.0055V37.2553C115.886 36.7672 115.816 36.2745 115.632 35.8194C115.407 35.5895 115.102 35.4559 114.781 35.4463V35.0424H118.809ZM131.951 35.1605H135.245V36.3602H133.38C133.668 36.6426 133.907 36.9702 134.089 37.33C134.297 37.8345 134.376 38.3831 134.319 38.9259C134.261 39.4687 134.069 39.9885 133.759 40.4381C133.352 40.9844 132.807 41.4131 132.18 41.6814C131.628 41.9554 131.025 42.1101 130.409 42.1353L129.166 42.0793C129.019 42.0761 128.873 42.1031 128.737 42.1588C128.601 42.2144 128.478 42.2974 128.376 42.4026C128.273 42.5026 128.192 42.6226 128.138 42.7552C128.083 42.8878 128.056 43.03 128.059 43.1734C128.059 43.2916 128.084 43.4084 128.133 43.5158C128.183 43.6231 128.255 43.7184 128.345 43.7951C128.619 43.9864 128.951 44.0745 129.284 44.0437H131.093C132.555 44.0437 133.563 44.2116 134.114 44.5472C134.491 44.7589 134.802 45.072 135.01 45.4509C135.219 45.83 135.318 46.2598 135.295 46.6919C135.3 47.2968 135.11 47.8875 134.754 48.3765C134.395 48.8796 133.899 49.2682 133.324 49.4955C132.331 49.8684 131.277 50.0498 130.216 50.0301C129.406 50.0378 128.599 49.9481 127.81 49.7628C127.231 49.6753 126.686 49.435 126.231 49.0666C126.09 48.941 125.975 48.7881 125.894 48.6172C125.813 48.4464 125.767 48.2609 125.759 48.072C125.759 47.7362 125.888 47.4135 126.119 47.1705C126.499 46.8311 126.963 46.5994 127.462 46.4992C127.069 46.3461 126.73 46.0803 126.488 45.7353C126.246 45.3901 126.111 44.9811 126.101 44.5597C126.113 44.0238 126.308 43.5081 126.654 43.0988C127.129 42.5454 127.733 42.1182 128.413 41.8555C127.615 41.5953 126.91 41.1069 126.387 40.4507C125.969 39.8632 125.751 39.1571 125.765 38.4365C125.764 37.9471 125.868 37.463 126.07 37.017C126.271 36.571 126.566 36.1732 126.934 35.8505C127.758 35.109 128.841 34.7205 129.949 34.7688C130.635 34.7678 131.315 34.9008 131.951 35.1605ZM129.526 46.7292C129.048 46.6934 128.567 46.7569 128.115 46.9157C127.934 46.9922 127.78 47.119 127.67 47.281C127.559 47.4432 127.498 47.6335 127.493 47.8294C127.505 48.0358 127.568 48.2359 127.677 48.4118C127.785 48.5875 127.936 48.7336 128.115 48.8366C128.828 49.2068 129.633 49.3643 130.434 49.2903C131.217 49.3257 131.998 49.1878 132.721 48.8863C132.958 48.8036 133.164 48.6514 133.313 48.4495C133.462 48.2476 133.546 48.0055 133.554 47.7549C133.56 47.5877 133.505 47.4241 133.399 47.2949C133.172 47.0558 132.873 46.8983 132.547 46.8473C131.544 46.739 130.534 46.7017 129.526 46.7353V46.7292ZM130.148 35.4092C129.938 35.4179 129.734 35.4793 129.555 35.588C129.376 35.6968 129.227 35.8491 129.122 36.0307C128.844 36.4452 128.705 37.3258 128.705 38.6727C128.638 39.4381 128.78 40.2073 129.116 40.8983C129.211 41.0769 129.352 41.2278 129.522 41.3367C129.693 41.4456 129.889 41.5087 130.092 41.5198C130.304 41.5142 130.512 41.4542 130.695 41.3453C130.878 41.2364 131.03 41.0825 131.136 40.8983C131.483 40.173 131.627 39.3675 131.553 38.567C131.632 37.654 131.469 36.7364 131.08 35.9065C130.984 35.7446 130.846 35.6115 130.681 35.5207C130.516 35.43 130.33 35.385 130.142 35.3905L130.148 35.4092Z" fill="white"/>
</g>
</svg>
