<svg width="26" height="27" viewBox="0 0 26 27" fill="none" xmlns="http://www.w3.org/2000/svg">
<g clip-path="url(#clip0_2_682)">
<g clip-path="url(#clip1_2_682)">
<path d="M17.2491 6.07707C15.7684 5.26867 14.0955 4.90049 12.4147 5.00454C10.7338 5.1166 9.11704 5.70088 7.75639 6.69336C6.37171 7.69387 5.30716 9.07056 4.69086 10.6633C4.3707 11.4877 4.1706 12.3522 4.10657 13.2326H6.31568C6.46772 11.5918 7.22012 10.063 8.42872 8.9425C9.63731 7.82193 11.2141 7.18159 12.8629 7.1576C14.5517 7.12561 16.1926 7.73391 17.4572 8.86243C18.7138 9.991 19.5062 11.5518 19.6662 13.2326H21.8674C21.7233 10.8234 20.3706 7.78994 17.2491 6.07707ZM13.6153 11.6958C13.4712 11.8719 13.2791 11.992 13.055 12.056C12.8389 12.12 12.6068 12.112 12.3906 12.032C12.2306 11.992 12.0865 11.912 11.9664 11.7919C11.8464 11.6798 11.7584 11.5358 11.7103 11.3837C11.6623 11.2316 11.6543 11.0635 11.6863 10.9034C11.7183 10.7434 11.7904 10.5913 11.8944 10.4712C12.0865 10.2632 12.3507 10.1271 12.6388 10.1031C12.9269 10.0791 13.2071 10.1591 13.4312 10.3352C13.5032 10.3912 13.5672 10.4552 13.6313 10.5193C13.7113 10.4632 13.7914 10.3992 13.8874 10.3352C13.7834 10.1831 13.6473 10.055 13.4872 9.96701C13.1911 9.80691 12.8549 9.74288 12.5187 9.79092C12.3427 9.80691 12.1666 9.86294 12.0065 9.94297C11.8464 10.031 11.7103 10.1431 11.5983 10.2792C11.4862 10.4152 11.4062 10.5673 11.3581 10.7354C11.3102 10.9034 11.3021 11.0795 11.3261 11.2476C11.3501 11.4638 11.4302 11.6798 11.5583 11.8559C11.6863 12.032 11.8624 12.1761 12.0625 12.2641C12.3026 12.3762 12.5748 12.4162 12.8389 12.3922C13.159 12.3842 13.4712 12.2561 13.7193 12.048C13.7834 11.992 13.8314 11.928 13.8954 11.8719L13.6233 11.6798C13.6233 11.6798 13.6233 11.6878 13.6153 11.6958ZM15.6402 12.3522H16.0245L16.4246 11.5518H17.4892L17.8974 12.3522H18.2736C17.8334 11.4638 17.4012 10.5833 16.9609 9.70285C16.5207 10.5833 16.0805 11.4638 15.6402 12.3522ZM16.5927 11.2236C16.7128 10.9755 16.8408 10.7354 16.9609 10.4872C17.089 10.7354 17.209 10.9835 17.3291 11.2236H16.5927ZM7.73235 12.3522H8.11657C8.25263 12.088 8.38868 11.8159 8.51674 11.5518H9.58128C9.71733 11.8159 9.85339 12.088 9.98949 12.3522H10.3657L9.05301 9.69485C8.61281 10.5833 8.17255 11.4638 7.73235 12.3522ZM8.67683 11.2236C8.79689 10.9755 8.92495 10.7354 9.05301 10.4792C9.18106 10.7354 9.30112 10.9755 9.42118 11.2236H8.67683ZM15.9524 10.8875C16.0085 10.7994 16.0485 10.6954 16.0565 10.5913C16.0645 10.4872 16.0485 10.3752 16.0084 10.2792C15.9684 10.1831 15.9044 10.0951 15.8243 10.023C15.7443 9.95096 15.6483 9.90298 15.5442 9.87894C15.4242 9.84695 15.2961 9.8309 15.1681 9.83895C14.9119 9.8309 14.6558 9.83895 14.3917 9.83895C14.3756 9.83895 14.3596 9.83895 14.3516 9.83895V12.3522H14.6878V11.2236C14.7758 11.2236 14.8559 11.2236 14.9359 11.2236C15.096 11.2156 15.2641 11.2156 15.4242 11.1996C15.5282 11.1916 15.6323 11.1596 15.7283 11.1116C15.8163 11.0475 15.8964 10.9755 15.9524 10.8875ZM15.6803 10.6473C15.6563 10.7194 15.6083 10.7754 15.5442 10.8154C15.4802 10.8554 15.4082 10.8795 15.3361 10.8795C15.128 10.8875 14.9119 10.8795 14.6958 10.8795V10.1431C14.9199 10.1511 15.136 10.1511 15.3521 10.1591C15.4082 10.1591 15.4642 10.1751 15.5122 10.1991C15.5602 10.2231 15.6083 10.2632 15.6402 10.3111C15.6723 10.3592 15.6883 10.4152 15.6963 10.4712C15.7043 10.5353 15.6963 10.5993 15.6803 10.6473ZM10.5657 12.3442H10.9099V9.8309H10.5657V12.3442Z" fill="#9F9F9F"/>
<path d="M13.1031 20.5868C11.6783 20.6268 10.2697 20.1946 9.11709 19.3621C7.59635 18.2736 6.68386 16.8009 6.35572 14.96H4.13062C4.59484 19.3461 8.5088 23.132 13.5353 22.8199C18.1696 22.5397 21.4432 18.8259 21.8194 14.96H19.5943C19.3462 16.5127 18.5537 17.9215 17.3692 18.946C16.1846 19.9785 14.6718 20.5547 13.1031 20.5868ZM12.2626 18.1295C12.4387 18.2016 12.6308 18.2416 12.8229 18.2336C13.015 18.2336 13.2071 18.1856 13.3832 18.1056C13.5433 18.0415 13.6874 17.9295 13.8074 17.8014C13.9194 17.6653 14.0075 17.5053 14.0475 17.3372C14.1196 17.065 14.1196 16.7849 14.0315 16.5127C13.9915 16.3687 13.9194 16.2326 13.8234 16.1126C13.7273 15.9925 13.6073 15.8964 13.4712 15.8324C13.2711 15.7284 13.047 15.6803 12.8229 15.6884C12.7749 15.6884 12.7269 15.6884 12.6788 15.6884C12.6468 15.6884 12.6228 15.6964 12.5908 15.6964C12.4067 15.7124 12.2226 15.7844 12.0626 15.8885C11.9025 15.9925 11.7744 16.1366 11.6863 16.2967C11.5583 16.5287 11.5102 16.7929 11.5263 17.049C11.5583 17.5532 11.7904 17.9295 12.2626 18.1295ZM12.4788 16.1366C12.6388 16.0725 12.8229 16.0565 12.991 16.0885C13.1591 16.1286 13.3191 16.2166 13.4312 16.3527C13.5753 16.5448 13.6473 16.7769 13.6313 17.017C13.6153 17.2571 13.5113 17.4812 13.3352 17.6493C12.959 17.9855 12.1666 17.9134 11.9985 17.1931C11.9825 17.121 11.9745 17.049 11.9745 17.017C11.9585 16.6088 12.1506 16.2726 12.4788 16.1366ZM10.3737 17.8334C10.2777 17.8334 10.1736 17.8174 10.0856 17.7694C9.9975 17.7213 9.92547 17.6573 9.86944 17.5773C9.76543 17.6893 9.66136 17.8014 9.55729 17.9134C9.63732 18.0095 9.74138 18.0815 9.85345 18.1295C10.0776 18.2256 10.3177 18.2496 10.5578 18.2096C10.95 18.1455 11.2061 17.8894 11.2301 17.5133C11.2461 17.3852 11.2221 17.2491 11.1581 17.1371C11.0941 17.025 10.998 16.929 10.878 16.8729C10.7739 16.8249 10.6618 16.7849 10.5578 16.7449C10.4377 16.7048 10.3177 16.6488 10.1976 16.5928C10.1416 16.5608 10.1016 16.5127 10.0856 16.4567C10.0696 16.4007 10.0696 16.3366 10.0936 16.2806C10.1096 16.2406 10.1336 16.2006 10.1656 16.1686C10.1976 16.1366 10.2376 16.1206 10.2777 16.1045C10.3817 16.0645 10.5018 16.0565 10.6138 16.0885C10.7259 16.1206 10.8219 16.1766 10.8939 16.2646C10.998 16.1526 11.1021 16.0485 11.2061 15.9365C11.1821 15.9124 11.1661 15.8964 11.1421 15.8885C10.95 15.7524 10.7179 15.6803 10.4857 15.6884C10.2857 15.6884 10.0856 15.7443 9.90948 15.8484C9.51726 16.0885 9.47727 16.7849 9.97351 17.009C10.0936 17.065 10.2216 17.097 10.3417 17.1451C10.4457 17.1851 10.5498 17.2331 10.6458 17.2891C10.6779 17.3132 10.7099 17.3452 10.7259 17.3852C10.7499 17.4252 10.7579 17.4652 10.7579 17.5053C10.7579 17.5452 10.7499 17.5933 10.7339 17.6333C10.7179 17.6733 10.6859 17.7053 10.6538 17.7374C10.5978 17.8014 10.4857 17.8334 10.3737 17.8334ZM14.6718 17.8494C15.072 18.2416 15.5442 18.3136 16.0645 18.1535C16.2566 18.0895 16.4167 17.9615 16.5288 17.8014L16.1686 17.5452C16.1526 17.5613 16.1445 17.5693 16.1365 17.5853C15.7844 18.0095 15.2241 17.8494 14.992 17.5532C14.9119 17.4492 14.8559 17.3292 14.8239 17.1931C14.7919 17.065 14.7839 16.929 14.8079 16.7929C14.8319 16.5928 14.9279 16.4087 15.08 16.2726C15.3202 16.0565 15.8004 15.9525 16.1125 16.2967C16.1205 16.3047 16.1285 16.3127 16.1365 16.3127L16.4727 16.0645C16.3847 15.9525 16.2726 15.8644 16.1445 15.8004C15.9125 15.6884 15.6483 15.6563 15.4002 15.6964C15.2401 15.7124 15.088 15.7684 14.952 15.8484C14.8159 15.9285 14.6958 16.0325 14.5998 16.1606C14.4157 16.4167 14.3276 16.7289 14.3517 17.041C14.3436 17.3452 14.4637 17.6333 14.6718 17.8494ZM13.7674 18.7458C13.7114 18.7939 13.6793 18.8659 13.6713 18.9379C13.6633 19.01 13.6793 19.082 13.7273 19.1461C13.7514 19.178 13.7834 19.2021 13.8234 19.2261C13.8635 19.2421 13.9034 19.2581 13.9435 19.2581C13.9835 19.2661 14.0235 19.2581 14.0635 19.2421C14.1036 19.2261 14.1356 19.2021 14.1595 19.17C14.1676 19.3142 14.1436 19.3942 14.0635 19.4262C14.0075 19.4502 13.9515 19.4582 13.8954 19.4422C13.8394 19.4262 13.7834 19.3942 13.7514 19.3541C13.7273 19.3782 13.7034 19.4022 13.6874 19.4342C13.7353 19.4822 13.7914 19.5142 13.8554 19.5302C13.9194 19.5463 13.9835 19.5463 14.0475 19.5302C14.0955 19.5222 14.1436 19.4982 14.1756 19.4662C14.2156 19.4342 14.2396 19.3862 14.2476 19.3381C14.2556 19.2981 14.2636 19.2581 14.2636 19.2181C14.2636 19.058 14.2636 18.9059 14.2636 18.7458C14.2636 18.7298 14.2636 18.7139 14.2636 18.7059H14.1756C14.1756 18.7298 14.1756 18.7538 14.1676 18.7859C14.1196 18.7298 14.0555 18.6978 13.9755 18.6898C13.8954 18.6818 13.8234 18.7059 13.7674 18.7458ZM14.1595 18.97C14.1595 18.994 14.1595 19.026 14.1436 19.05C14.1356 19.074 14.1196 19.098 14.1036 19.114C14.0875 19.1301 14.0635 19.1461 14.0395 19.1621C14.0155 19.17 13.9915 19.178 13.9595 19.178C13.9114 19.178 13.8635 19.1541 13.8234 19.1221C13.7914 19.082 13.7674 19.034 13.7674 18.986C13.7674 18.962 13.7674 18.9379 13.7754 18.9139C13.7834 18.8899 13.7994 18.8659 13.8154 18.8499C13.8314 18.8339 13.8554 18.8179 13.8794 18.8099C13.9034 18.8019 13.9275 18.7939 13.9515 18.7939C13.9755 18.7939 13.9995 18.8019 14.0235 18.8099C14.0475 18.8179 14.0715 18.8339 14.0875 18.8499C14.1036 18.8659 14.1196 18.8899 14.1276 18.9139C14.1516 18.9139 14.1595 18.9379 14.1595 18.97ZM11.1021 18.6978H11.014V19.5142H11.1021V19.17C11.2461 19.2901 11.3902 19.2981 11.5022 19.1941C11.5503 19.1461 11.5823 19.074 11.5903 19.002C11.5983 18.9299 11.5743 18.8579 11.5343 18.8019C11.4942 18.7458 11.4382 18.7139 11.3742 18.6978C11.3262 18.6818 11.2782 18.6898 11.2301 18.6978C11.1821 18.7059 11.1421 18.7378 11.1021 18.7779C11.1021 18.7458 11.1021 18.7218 11.1021 18.6978ZM11.3022 18.7699C11.3261 18.7699 11.3582 18.7779 11.3822 18.7859C11.4062 18.7939 11.4302 18.8099 11.4462 18.8339C11.4623 18.8499 11.4783 18.8739 11.4862 18.8979C11.4942 18.9219 11.5022 18.946 11.4942 18.978C11.4942 19.002 11.4942 19.026 11.4862 19.05C11.4783 19.074 11.4623 19.098 11.4462 19.114C11.4302 19.1301 11.4062 19.1461 11.3822 19.1621C11.3582 19.17 11.3342 19.178 11.3102 19.178C11.2862 19.178 11.2541 19.17 11.2301 19.1621C11.2061 19.1541 11.1821 19.1381 11.1661 19.1221C11.1501 19.106 11.1341 19.082 11.1261 19.058C11.1181 19.034 11.1101 19.01 11.1101 18.978C11.1101 18.954 11.1101 18.9219 11.1261 18.8979C11.1341 18.8739 11.1501 18.8499 11.1661 18.8339C11.1821 18.8179 11.2061 18.8019 11.2301 18.7859C11.2461 18.7779 11.2701 18.7699 11.3022 18.7699ZM12.5988 18.97C12.5988 19.01 12.6068 19.05 12.6148 19.082C12.6308 19.1221 12.6548 19.1541 12.6788 19.178C12.7108 19.2021 12.7429 19.2261 12.7749 19.2421C12.8149 19.2581 12.8469 19.2581 12.8869 19.2581C12.927 19.2581 12.967 19.2581 12.999 19.2421C13.039 19.2261 13.071 19.2101 13.0951 19.178C13.119 19.1461 13.1431 19.1221 13.1591 19.082C13.1751 19.042 13.1831 19.01 13.1751 18.97C13.1751 18.9299 13.1751 18.8899 13.1591 18.8579C13.1431 18.8179 13.127 18.7859 13.0951 18.7619C13.071 18.7378 13.031 18.7139 12.999 18.6978C12.959 18.6818 12.927 18.6818 12.8869 18.6818C12.8469 18.6818 12.8069 18.6818 12.7749 18.6978C12.7349 18.7139 12.7028 18.7298 12.6788 18.7619C12.6468 18.7859 12.6308 18.8179 12.6148 18.8579C12.6068 18.8899 12.5988 18.9299 12.5988 18.97ZM13.0871 18.97C13.0871 18.994 13.0871 19.026 13.0791 19.05C13.071 19.074 13.055 19.098 13.039 19.114C13.023 19.1301 12.999 19.1461 12.975 19.1621C12.951 19.17 12.927 19.178 12.8949 19.178C12.8709 19.178 12.8469 19.17 12.8229 19.1621C12.7989 19.1541 12.7749 19.1381 12.7589 19.1221C12.7429 19.106 12.7269 19.082 12.7189 19.058C12.7108 19.034 12.7028 19.01 12.7028 18.986C12.7028 18.962 12.7028 18.9299 12.7108 18.9059C12.7189 18.8819 12.7349 18.8579 12.7509 18.8419C12.7669 18.8259 12.7909 18.8099 12.8149 18.7939C12.8389 18.7859 12.8629 18.7779 12.8949 18.7779C12.919 18.7779 12.951 18.7859 12.975 18.7939C12.999 18.8019 13.023 18.8179 13.039 18.8419C13.055 18.8579 13.071 18.8819 13.0791 18.9059C13.0871 18.9219 13.0871 18.946 13.0871 18.97ZM15.2881 18.97C15.2881 19.01 15.2961 19.05 15.3122 19.082C15.3282 19.1221 15.3521 19.1541 15.3762 19.178C15.4082 19.2021 15.4402 19.2261 15.4722 19.2421C15.5122 19.2581 15.5442 19.2581 15.5843 19.2581C15.6243 19.2581 15.6643 19.2501 15.6963 19.2421C15.7364 19.2261 15.7684 19.2101 15.7924 19.178C15.8164 19.1541 15.8404 19.114 15.8564 19.082C15.8724 19.042 15.8724 19.01 15.8724 18.97C15.8724 18.9299 15.8644 18.8899 15.8564 18.8579C15.8404 18.8259 15.8244 18.7859 15.7924 18.7619C15.7604 18.7378 15.7283 18.7139 15.6963 18.6978C15.6563 18.6818 15.6243 18.6818 15.5843 18.6818C15.5442 18.6818 15.5043 18.6818 15.4722 18.6978C15.4322 18.7139 15.4002 18.7298 15.3762 18.7619C15.3442 18.7859 15.3282 18.8179 15.3122 18.8579C15.2961 18.8979 15.2881 18.9299 15.2881 18.97ZM15.7764 18.978C15.7764 19.002 15.7764 19.026 15.7684 19.05C15.7604 19.074 15.7444 19.098 15.7283 19.114C15.7123 19.1301 15.6883 19.1461 15.6643 19.1541C15.6403 19.1621 15.6163 19.17 15.5923 19.17C15.5683 19.17 15.5362 19.1621 15.5122 19.1541C15.4883 19.1461 15.4642 19.1301 15.4482 19.106C15.4322 19.09 15.4162 19.066 15.4082 19.042C15.4002 19.018 15.3922 18.994 15.3922 18.962C15.3922 18.9379 15.3922 18.9059 15.4082 18.8819C15.4242 18.8579 15.4322 18.8339 15.4482 18.8179C15.4642 18.8019 15.4883 18.7859 15.5122 18.7699C15.5362 18.7619 15.5603 18.7538 15.5923 18.7538C15.6163 18.7538 15.6483 18.7619 15.6723 18.7699C15.6963 18.7779 15.7203 18.7939 15.7364 18.8179C15.7524 18.8339 15.7684 18.8579 15.7764 18.8819C15.7684 18.9219 15.7764 18.946 15.7764 18.978ZM9.68535 19.2501C9.73339 19.2661 9.78142 19.2661 9.82945 19.2501C9.87744 19.2341 9.91747 19.2101 9.94951 19.17C9.94951 19.2021 9.95751 19.2181 9.95751 19.2341H10.0375C10.0375 19.1221 10.0375 19.01 10.0375 18.8979C10.0375 18.7779 9.9975 18.7139 9.91747 18.6898C9.81341 18.6578 9.64537 18.6818 9.59733 18.7699C9.61333 18.7859 9.62932 18.8019 9.64537 18.8179C9.82945 18.7219 9.94146 18.7538 9.94146 18.8979C9.91747 18.8979 9.88549 18.8979 9.86144 18.8979C9.79741 18.9059 9.72539 18.9139 9.66136 18.9379C9.62932 18.946 9.59733 18.97 9.58128 19.002C9.56529 19.034 9.55729 19.074 9.56529 19.106C9.56529 19.1381 9.58128 19.17 9.60533 19.1941C9.62132 19.2261 9.65336 19.2421 9.68535 19.2501ZM9.73339 19.002C9.79741 18.994 9.86944 18.986 9.93347 18.978C9.94146 19.114 9.87744 19.1941 9.75738 19.1861C9.73339 19.1861 9.70939 19.178 9.69335 19.17C9.67735 19.1541 9.66136 19.1381 9.66136 19.114C9.66136 19.106 9.66136 19.09 9.66136 19.082C9.66136 19.074 9.66936 19.058 9.67735 19.05C9.68535 19.042 9.69335 19.034 9.70134 19.026C9.7094 19.01 9.72539 19.002 9.73339 19.002ZM11.9905 18.9059C11.9264 18.9139 11.8544 18.9219 11.7904 18.946C11.7584 18.954 11.7264 18.978 11.7104 19.01C11.6944 19.042 11.6863 19.074 11.6944 19.114C11.6944 19.1461 11.7104 19.178 11.7344 19.2021C11.7584 19.2261 11.7824 19.2421 11.8224 19.2501C11.8704 19.2661 11.9185 19.2661 11.9665 19.2581C12.0145 19.2421 12.0546 19.2181 12.0865 19.178C12.0945 19.2021 12.0945 19.2261 12.1025 19.2421H12.1826C12.1826 19.1221 12.1826 19.01 12.1826 18.8899C12.1826 18.8499 12.1826 18.8179 12.1586 18.7779C12.1346 18.7378 12.1105 18.7139 12.0785 18.6978C12.0225 18.6738 11.9585 18.6658 11.9025 18.6818C11.8384 18.6898 11.7824 18.7219 11.7424 18.7619L11.7904 18.8259C11.8224 18.7939 11.8624 18.7779 11.9105 18.7699C11.9585 18.7619 11.9985 18.7699 12.0385 18.7859C12.0546 18.7939 12.0706 18.8179 12.0865 18.8339C12.0945 18.8579 12.0945 18.8739 12.0945 18.8979C12.0385 18.9059 12.0145 18.9059 11.9905 18.9059ZM11.8785 19.178C11.8544 19.178 11.8384 19.17 11.8224 19.1541C11.8064 19.1381 11.7984 19.122 11.7904 19.098C11.7824 19.074 11.7904 19.058 11.7984 19.042C11.8064 19.026 11.8304 19.01 11.8464 19.01C11.9185 18.994 11.9905 18.994 12.0626 18.978C12.0785 19.122 11.9985 19.1941 11.8785 19.178ZM15.032 19.17C15 19.178 14.96 19.178 14.9279 19.17C14.896 19.1621 14.8639 19.1381 14.8479 19.106C14.8239 19.1301 14.7999 19.1461 14.7759 19.1621C14.8079 19.2101 14.8559 19.2421 14.904 19.2581C14.96 19.2741 15.016 19.2741 15.064 19.2581C15.104 19.2501 15.1441 19.2341 15.1681 19.2021C15.1921 19.17 15.2081 19.1301 15.2081 19.09C15.2081 19.01 15.1601 18.962 15.072 18.9379C15.032 18.9299 14.992 18.9219 14.952 18.9059C14.9279 18.8979 14.896 18.8659 14.904 18.8499C14.9119 18.8339 14.9199 18.8259 14.9279 18.8099C14.9359 18.8019 14.952 18.7939 14.968 18.7859C15 18.7779 15.032 18.7779 15.056 18.7859C15.088 18.7939 15.112 18.8179 15.1281 18.8419C15.1521 18.8259 15.1761 18.8099 15.2001 18.7939C15.1441 18.6658 14.9359 18.6658 14.8559 18.7458C14.8399 18.7619 14.8239 18.7859 14.8159 18.8099C14.8079 18.8339 14.8079 18.8579 14.8159 18.8819C14.8239 18.9059 14.8319 18.9299 14.8479 18.946C14.8639 18.962 14.888 18.978 14.904 18.986C14.952 19.002 15.008 19.018 15.056 19.026C15.096 19.034 15.1281 19.058 15.12 19.098C15.112 19.114 15.104 19.1301 15.096 19.1381C15.064 19.1541 15.048 19.1621 15.032 19.17ZM16.4007 18.8339C16.4247 18.8099 16.4487 18.7939 16.4727 18.7699C16.4167 18.7139 16.3367 18.6818 16.2566 18.6818C16.1766 18.6818 16.0966 18.7139 16.0405 18.7699C15.9925 18.8339 15.9684 18.9139 15.9684 18.994C15.9765 19.074 16.0085 19.1461 16.0725 19.2021C16.1285 19.2421 16.2006 19.2661 16.2726 19.2581C16.3447 19.2501 16.4087 19.2181 16.4567 19.1621C16.4407 19.1461 16.4167 19.122 16.3927 19.106C16.3767 19.122 16.3607 19.1381 16.3367 19.1541C16.3126 19.1621 16.2886 19.17 16.2646 19.17C16.2406 19.17 16.2166 19.17 16.1926 19.1621C16.1686 19.1541 16.1445 19.1381 16.1285 19.1221C16.0885 19.082 16.0725 19.034 16.0645 18.978C16.0645 18.9219 16.0725 18.8739 16.1045 18.8259C16.1205 18.8019 16.1445 18.7859 16.1686 18.7779C16.1926 18.7699 16.2166 18.7619 16.2486 18.7619C16.2726 18.7619 16.3046 18.7699 16.3286 18.7779C16.3607 18.8019 16.3847 18.8179 16.4007 18.8339ZM10.6699 18.7779C10.7019 18.7699 10.7339 18.7699 10.7659 18.7779C10.7979 18.7859 10.8219 18.8099 10.8459 18.8339C10.87 18.8099 10.8939 18.7859 10.918 18.7699C10.862 18.7139 10.7899 18.6818 10.7179 18.6818C10.6378 18.6818 10.5658 18.7059 10.5098 18.7619C10.4537 18.8179 10.4298 18.8979 10.4298 18.978C10.4298 19.058 10.4617 19.1301 10.5178 19.1941C10.5738 19.2421 10.6458 19.2661 10.7179 19.2661C10.7899 19.2661 10.862 19.2341 10.918 19.1861L10.862 19.114C10.7579 19.1941 10.6618 19.2021 10.5898 19.1301C10.5578 19.09 10.5338 19.042 10.5338 18.994C10.5338 18.946 10.5418 18.8899 10.5738 18.8499C10.5978 18.8099 10.6378 18.7859 10.6699 18.7779ZM14.7519 18.3937C14.7199 18.3857 14.7038 18.3777 14.6718 18.3617C14.5518 18.6658 14.4397 18.962 14.3196 19.2581L14.3997 19.2901C14.5197 18.994 14.6318 18.6978 14.7519 18.3937ZM13.4232 18.8979C13.4232 18.8819 13.4312 18.8579 13.4392 18.8419C13.4472 18.8259 13.4632 18.8099 13.4792 18.8019C13.4952 18.7939 13.5113 18.7859 13.5353 18.7779C13.5513 18.7699 13.5753 18.7699 13.5913 18.7779C13.5993 18.7779 13.6153 18.7779 13.6233 18.7779V18.6898C13.5833 18.6818 13.5433 18.6898 13.5033 18.6978C13.4632 18.7139 13.4312 18.7378 13.4072 18.7699C13.3992 18.7378 13.3992 18.7219 13.3992 18.7059H13.3192V19.2501H13.4072C13.4072 19.2101 13.4072 19.17 13.4072 19.1381C13.4152 19.058 13.4152 18.978 13.4232 18.8979ZM10.2056 19.2421H10.2936V18.6978H10.2056V19.2421ZM12.3267 19.178C12.3267 19.1861 12.3267 19.1941 12.3267 19.2101C12.3267 19.2181 12.3347 19.2261 12.3427 19.2341C12.3507 19.2421 12.3587 19.2501 12.3667 19.2501C12.3747 19.2501 12.3827 19.2581 12.3907 19.2501C12.4307 19.2501 12.4547 19.2261 12.4627 19.178C12.4627 19.17 12.4627 19.1621 12.4547 19.1541C12.4547 19.1461 12.4467 19.1381 12.4387 19.1301C12.4307 19.1221 12.4227 19.1221 12.4147 19.114C12.4067 19.114 12.3987 19.106 12.3907 19.114C12.3827 19.114 12.3747 19.114 12.3667 19.114C12.3587 19.114 12.3507 19.1221 12.3427 19.1301C12.3347 19.1381 12.3347 19.1461 12.3267 19.1541C12.3267 19.1621 12.3267 19.17 12.3267 19.178ZM10.3097 18.4897C10.3097 18.4417 10.2856 18.4177 10.2456 18.4177C10.2376 18.4177 10.2296 18.4177 10.2216 18.4177C10.2136 18.4177 10.2056 18.4257 10.1976 18.4337C10.1896 18.4417 10.1896 18.4497 10.1816 18.4577C10.1736 18.4657 10.1736 18.4737 10.1736 18.4817C10.1736 18.4897 10.1736 18.4977 10.1736 18.5057C10.1736 18.5137 10.1816 18.5218 10.1896 18.5298C10.1976 18.5378 10.2056 18.5378 10.2136 18.5458C10.2216 18.5458 10.2296 18.5538 10.2376 18.5538C10.2457 18.5538 10.2537 18.5538 10.2617 18.5538C10.2697 18.5538 10.2777 18.5458 10.2856 18.5378C10.2936 18.5298 10.2936 18.5218 10.3016 18.5137C10.3097 18.5057 10.3097 18.4977 10.3097 18.4897Z" fill="#9F9F9F"/>
<path d="M22.7718 14.848V13.3833H3.21814V14.848H22.7718Z" fill="#404040"/>
</g>
</g>
<defs>
<clipPath id="clip0_2_682">
<rect width="25.59" height="25.59" fill="white" transform="translate(0.199951 0.97998)"/>
</clipPath>
<clipPath id="clip1_2_682">
<rect width="25.59" height="25.59" fill="white" transform="translate(0.199951 0.97998)"/>
</clipPath>
</defs>
</svg>
