<svg width="175" height="78" viewBox="0 0 175 78" fill="none" xmlns="http://www.w3.org/2000/svg">
<g id="sorare.svg">
<g id="Clip path group">
<mask id="mask0_2_54" style="mask-type:luminance" maskUnits="userSpaceOnUse" x="39" y="26" width="27" height="26">
<g id="clip0_4329_45">
<path id="Vector" d="M65.3664 26.0969H39.6803V51.7829H65.3664V26.0969Z" fill="white"/>
</g>
</mask>
<g mask="url(#mask0_2_54)">
<g id="Group">
<path id="Vector_2" d="M51.388 33.4905C52.0862 34.3607 52.9855 35.048 54.0085 35.4933C55.0314 35.9386 56.1473 36.1283 57.2599 36.0464C57.3047 36.0414 57.3501 36.0493 57.3905 36.0692C57.431 36.0891 57.465 36.12 57.4885 36.1586C57.512 36.1971 57.524 36.2415 57.5231 36.2866C57.5222 36.3317 57.5085 36.3755 57.4835 36.4131C56.8719 37.3463 56.4965 38.4143 56.3895 39.5248C56.2823 40.6355 56.4468 41.7555 56.8687 42.7884C56.8852 42.8292 56.8899 42.8739 56.8823 42.9174C56.8749 42.9608 56.8555 43.0014 56.8262 43.0344C56.7969 43.0673 56.7589 43.0916 56.7167 43.1041C56.6744 43.1168 56.6295 43.1173 56.5868 43.1059C55.5091 42.8114 54.3758 42.7837 53.2849 43.0253C52.1941 43.2669 51.1786 43.7703 50.3259 44.4921C50.2917 44.5203 50.2506 44.5385 50.2067 44.5447C50.163 44.5509 50.1184 44.545 50.078 44.5273C50.0375 44.5097 50.0027 44.4812 49.9772 44.445C49.952 44.4089 49.9371 44.3664 49.9345 44.3223C49.8806 43.2083 49.5566 42.1241 48.9906 41.1632C48.4246 40.2021 47.6335 39.3931 46.6853 38.8057C46.648 38.7822 46.6179 38.7487 46.5984 38.709C46.5789 38.6693 46.5709 38.625 46.5751 38.581C46.5792 38.537 46.5954 38.4949 46.622 38.4596C46.6487 38.4243 46.6845 38.3971 46.7256 38.3809C47.7697 37.986 48.7022 37.3431 49.4424 36.5074C50.1826 35.6719 50.7084 34.6686 50.9743 33.5844C50.9846 33.5416 51.0068 33.5026 51.0383 33.4717C51.0696 33.4408 51.109 33.4193 51.152 33.4095C51.1949 33.3998 51.2398 33.4021 51.2814 33.4164C51.3233 33.4307 51.36 33.4565 51.388 33.4905Z" fill="white"/>
<path id="Vector_3" d="M52.359 28.9445C54.336 28.9445 56.2685 29.5307 57.9122 30.629C59.556 31.7274 60.8371 33.2884 61.5937 35.1148C62.3502 36.9413 62.5483 38.951 62.1625 40.8898C61.7767 42.8289 60.8247 44.6099 59.4269 46.0078C58.0289 47.4057 56.2479 48.3577 54.3091 48.7433C52.3702 49.129 50.3604 48.931 48.534 48.1744C46.7075 47.4179 45.1465 46.1368 44.0482 44.4931C42.9499 42.8494 42.3636 40.9168 42.3636 38.9399C42.3665 36.2899 43.4205 33.7492 45.2944 31.8753C47.1683 30.0014 49.709 28.9474 52.359 28.9445ZM52.359 26.2611C49.8515 26.2611 47.4001 27.0047 45.3151 28.3979C43.2301 29.7911 41.605 31.7712 40.6454 34.088C39.6858 36.4047 39.4347 38.954 39.9239 41.4135C40.4132 43.8729 41.6207 46.132 43.3938 47.9052C45.167 49.6784 47.4262 50.8859 49.8855 51.3751C52.345 51.8644 54.8942 51.6133 57.211 50.6535C59.5278 49.6939 61.508 48.0689 62.9012 45.9838C64.2943 43.8988 65.0378 41.4475 65.0378 38.9399C65.0378 35.5773 63.702 32.3523 61.3242 29.9747C58.9466 27.597 55.7216 26.2611 52.359 26.2611Z" fill="white"/>
</g>
</g>
</g>
<g id="Clip path group_2">
<mask id="mask1_2_54" style="mask-type:luminance" maskUnits="userSpaceOnUse" x="74" y="33" width="61" height="12">
<g id="clip1_4329_45">
<path id="Vector_4" d="M134.87 33.6516H74.432V44.2283H134.87V33.6516Z" fill="white"/>
</g>
</mask>
<g mask="url(#mask1_2_54)">
<g id="Group_2">
<path id="Vector_5" d="M74.432 40.8964H76.4991C76.4991 41.7001 77.2427 42.3838 78.4526 42.3838C79.6752 42.3838 80.4314 41.8439 80.4314 41.0884C80.4314 40.4166 79.8642 40.0688 79.0702 39.9009L77.6335 39.5769C75.6547 39.0852 74.7472 38.1136 74.7472 36.6143C74.7472 34.971 76.31 33.6516 78.5156 33.6516C80.3305 33.6516 82.2841 34.5632 82.2841 36.6743H80.1541C80.1541 35.9426 79.3601 35.4389 78.5661 35.4389C77.6335 35.4389 77.0032 35.9786 77.0032 36.6743C77.0032 37.2981 77.6208 37.6458 78.2761 37.8018L79.8894 38.1737C82.1707 38.7133 82.6622 40.0568 82.6622 41.1363C82.6622 43.0554 80.6582 44.1829 78.4778 44.1829C76.4991 44.1829 74.4699 42.9955 74.432 40.8964ZM83.6579 38.8813C83.6579 35.6788 86.2038 33.6516 89.2287 33.6516C92.2536 33.6516 94.8121 35.6788 94.8121 38.8813C94.8121 42.0838 92.2409 44.1829 89.2162 44.1829C86.1913 44.1829 83.6579 42.0838 83.6579 38.8813ZM92.5812 38.8813C92.5812 36.9382 91.0309 35.6308 89.2162 35.6308C87.4011 35.6308 85.8762 36.9262 85.8762 38.8813C85.8762 40.8484 87.4011 42.1679 89.2162 42.1679C91.0309 42.1679 92.5812 40.8484 92.5812 38.8813ZM103.231 34.0235L102.841 36.0386C102.349 35.8227 101.82 35.7027 101.278 35.6907C99.3494 35.6907 98.4418 37.6099 98.4418 40.3446V43.9791H96.1858V33.8795H98.4418V36.1465C98.9838 34.3714 100.055 33.6636 101.416 33.6636C102.135 33.6516 102.891 33.8196 103.231 34.0235ZM114.713 33.8675V43.967H112.482V42.4557C111.777 43.6072 110.251 44.1829 108.827 44.1829C105.941 44.1829 103.559 42.1079 103.559 38.9053C103.559 35.6788 105.941 33.6516 108.802 33.6516C110.302 33.6516 111.777 34.2154 112.482 35.3548V33.8555H114.713V33.8675ZM112.47 38.8813C112.47 36.8541 110.718 35.6548 109.079 35.6548C107.264 35.6548 105.79 36.9742 105.79 38.8813C105.79 40.7644 107.264 42.1679 109.079 42.1679C110.882 42.1679 112.47 40.9204 112.47 38.8813ZM123.498 34.0235L123.107 36.0386C122.616 35.8227 122.086 35.7027 121.544 35.6907C119.616 35.6907 118.708 37.6099 118.708 40.3446V43.9791H116.465V33.8795H118.721V36.1465C119.263 34.3714 120.334 33.6636 121.696 33.6636C122.401 33.6516 123.157 33.8196 123.498 34.0235ZM134.526 39.7689H126.069C126.359 41.4121 127.632 42.2158 129.359 42.2158C130.581 42.2158 131.741 41.7241 132.333 40.7884L134.11 41.628C133.177 43.3194 131.274 44.1829 129.245 44.1829C126.182 44.1829 123.775 42.0838 123.775 38.8813C123.775 35.6788 126.233 33.6516 129.245 33.6516C132.257 33.6516 134.564 35.6788 134.564 38.8573C134.564 39.1451 134.539 39.4451 134.526 39.7689ZM132.346 38.0656C132.144 36.4824 130.909 35.6188 129.283 35.6188C127.657 35.6188 126.422 36.3984 126.107 38.0656H132.346Z" fill="white"/>
</g>
</g>
</g>
</g>
</svg>
