<svg width="175" height="77" viewBox="0 0 175 77" fill="none" xmlns="http://www.w3.org/2000/svg">
<g id="stitch.svg">
<g id="Clip path group">
<mask id="mask0_2_101" style="mask-type:luminance" maskUnits="userSpaceOnUse" x="46" y="27" width="83" height="22">
<g id="clip0_3134_2168">
<path id="Vector" d="M128.059 27.3328H46.3307V48.5H128.059V27.3328Z" fill="white"/>
</g>
</mask>
<g mask="url(#mask0_2_101)">
<g id="Group">
<path id="Vector_2" d="M79.2071 36.8764C79.2071 36.3138 79.7482 35.9026 80.6574 35.9026C81.6528 35.9026 82.519 36.2269 83.2115 37.0502L84.7049 35.4913C83.9256 34.4093 82.4537 33.7813 80.592 33.7813C77.9512 33.7813 76.6092 35.297 76.6092 36.8772C76.6092 40.6003 82.1724 39.6911 82.1724 41.5526C82.1724 42.2021 81.6529 42.6348 80.6351 42.6348C79.4015 42.6348 78.4054 42.2021 77.6044 41.3144L76.1326 43.003C77.0203 44.0422 78.5138 44.7562 80.4837 44.7562C83.2976 44.7562 84.791 43.2628 84.791 41.5097C84.7918 37.6343 79.2071 38.695 79.2071 36.8764Z" fill="white"/>
<path id="Vector_3" d="M90.2225 34.0841V31.4001H87.5816V34.0841H85.7415V36.4222H87.56V40.9031C87.56 43.4358 88.902 44.7562 91.0019 44.7562C92.2793 44.7562 93.2531 44.2804 93.8372 43.7171L92.6467 41.7471C92.3869 42.0499 91.9103 42.2666 91.4347 42.2666C90.6553 42.2666 90.244 41.791 90.244 40.8164V36.4222H95.057V44.4534H97.6981V34.0841H95.057H90.2225Z" fill="white"/>
<path id="Vector_4" d="M96.3561 29.5815C95.5122 29.5815 94.8189 30.2956 94.8189 31.1402C94.8189 32.0066 95.5114 32.6776 96.3561 32.6776C97.2224 32.6776 97.9149 32.0066 97.9149 31.1402C97.9149 30.2964 97.2216 29.5815 96.3561 29.5815Z" fill="white"/>
<path id="Vector_5" d="M104.785 42.2666C104.005 42.2666 103.594 41.791 103.594 40.8164V36.4222H106.387V34.0841H103.572V31.4001H100.932V34.0841H99.0914V36.4222H100.91V40.9031C100.91 43.4358 102.252 44.7562 104.352 44.7562C105.629 44.7562 106.603 44.2804 107.187 43.7171L105.997 41.7471C105.737 42.0499 105.26 42.2666 104.785 42.2666Z" fill="white"/>
<path id="Vector_6" d="M113.182 36.2699C114.2 36.2699 114.979 36.5951 115.629 37.2222L117.143 35.3392C116.235 34.3869 114.827 33.7813 113.052 33.7813C110.022 33.7813 107.641 36.2492 107.641 39.2799C107.641 42.289 110.022 44.7562 113.095 44.7562C114.74 44.7562 116.235 44.1068 117.057 43.1974L115.715 41.249C115.066 41.8985 114.221 42.2666 113.161 42.2666C111.472 42.2666 110.282 40.9247 110.282 39.2575C110.282 37.5904 111.451 36.2699 113.182 36.2699Z" fill="white"/>
<path id="Vector_7" d="M124.119 33.7813C122.842 33.7813 121.847 34.2578 121.197 35.1018V29.5601H118.556V44.4526H121.197V38.5651C121.197 37.1578 121.998 36.2709 123.318 36.2709C124.596 36.2709 125.419 37.1586 125.419 38.5651V44.4526H128.059V38.1745C128.059 35.47 126.522 33.7813 124.119 33.7813Z" fill="white"/>
<path id="Vector_8" fill-rule="evenodd" clip-rule="evenodd" d="M54.919 48.4742C55.9144 48.4915 56.7651 48.5001 57.5978 48.5001C58.4297 48.5001 59.2556 48.4915 60.1209 48.4734L60.2061 48.4708C61.3503 48.4226 62.4299 48.1706 63.4139 47.7199C64.3757 47.2794 65.2205 46.6635 65.9241 45.8893C66.5823 45.1667 67.0914 44.333 67.439 43.4126C67.5345 43.1579 67.6179 42.8982 67.6868 42.6358C69.0631 42.1231 70.3036 41.2173 71.2276 40.0396C72.3278 38.6383 72.9334 36.9066 72.9334 35.1646C72.9334 34.067 72.702 33.0071 72.2452 32.0153C71.8348 31.1249 71.2525 30.3129 70.5144 29.6006C69.0898 28.2276 67.1267 27.4534 64.8376 27.3614L64.7947 27.3596L64.7507 27.3588C63.752 27.3415 62.9013 27.3329 62.0721 27.3329C61.241 27.3329 60.416 27.3415 59.5488 27.3596C59.5488 27.3596 59.4844 27.3614 59.4629 27.3622C58.3188 27.4105 57.2392 27.6625 56.2558 28.1132C55.2942 28.5537 54.4494 29.1697 53.7457 29.9438C53.0876 30.6673 52.5783 31.5 52.2309 32.4204C52.1354 32.6751 52.0519 32.9349 51.9831 33.1972C50.6066 33.71 49.3663 34.6158 48.4423 35.7935C47.3421 37.1949 46.7365 38.9264 46.7365 40.6685C46.7365 41.7661 46.9678 42.826 47.4247 43.8179C47.8349 44.7082 48.4174 45.5211 49.1554 46.2325C50.5801 47.6054 52.5431 48.3797 54.8295 48.4716L54.8752 48.4734L54.919 48.4742ZM69.4398 30.7154C70.0385 31.2926 70.509 31.9482 70.8385 32.663C71.2015 33.4501 71.3856 34.2923 71.3865 35.1654C71.3865 36.5624 70.8978 37.9544 70.0109 39.0847C69.1525 40.1789 67.9601 40.9823 66.6543 41.3463L66.348 41.4314C66.2869 41.9192 66.1683 42.4 65.9919 42.8663C65.7132 43.6027 65.3054 44.2702 64.7799 44.8483C64.2172 45.4669 63.5411 45.9597 62.7703 46.3125C61.9694 46.6789 61.0851 46.8845 60.1422 46.9241C60.1268 46.9249 60.1113 46.9257 60.0957 46.9257H60.0897C59.2338 46.943 58.4184 46.9516 57.5977 46.9516C56.7752 46.9516 55.933 46.943 54.9464 46.9257L54.9205 46.9249L54.8948 46.9241C52.9902 46.8466 51.3764 46.2221 50.2297 45.1167C49.6309 44.5395 49.1604 43.8839 48.8309 43.1691C48.4687 42.3819 48.2847 41.5406 48.2847 40.6675C48.2847 39.2705 48.7733 37.8787 49.6594 36.7474C50.5178 35.6532 51.7101 34.8497 53.016 34.4858L53.3222 34.4007C53.3834 33.9129 53.502 33.4321 53.6784 32.9658C53.9571 32.2294 54.3648 31.5619 54.8904 30.9838C55.453 30.3652 56.1292 29.8724 56.9 29.5196C57.7 29.1532 58.5835 28.9476 59.5264 28.908C59.5417 28.9072 59.5581 28.9064 59.5736 28.9064H59.5796C60.4356 28.8891 61.2511 28.8805 62.0718 28.8805C62.8942 28.8805 63.7363 28.8891 64.7231 28.9064L64.7488 28.9072L64.7747 28.908C66.6792 28.9855 68.2931 29.61 69.4398 30.7154ZM64.4228 36.4953C65.3803 37.1706 65.9696 38.6417 66.0452 39.1656C67.7665 38.6856 69.1214 37.0373 69.1214 35.1654C69.1214 34.0393 68.6364 33.0854 67.8689 32.3455C67.1016 31.6065 65.9961 31.2238 64.6834 31.1705C62.9122 31.1395 61.4024 31.1343 59.6261 31.1705H59.6235C56.9155 31.2823 55.5399 33.2927 55.5399 35.1654C55.5399 36.2915 55.9942 37.2232 56.5886 37.8304C57.22 38.4998 57.9667 38.9195 59.4223 39.2059C59.8266 39.2851 60.5191 39.421 60.8674 39.7918C61.0618 39.9983 61.2166 40.2993 61.2166 40.6021C61.2166 40.88 61.1211 41.1922 60.8958 41.4358C60.6782 41.6706 60.297 41.8375 59.8635 41.8452C58.2695 41.8744 56.426 41.8719 54.831 41.8452C54.3975 41.8375 54.0165 41.6706 53.7988 41.4358C53.5734 41.1914 53.4779 40.88 53.4779 40.6021C53.4779 39.9973 53.9975 39.3592 54.9584 39.3592C55.0531 39.3574 55.146 39.3574 55.2415 39.3582C55.2526 39.3582 55.2568 39.3445 55.2483 39.3385C54.2908 38.6631 53.7016 37.1921 53.626 36.6683C51.9054 37.1483 50.5497 38.7965 50.5497 40.6683C50.5497 41.7944 51.0349 42.7493 51.8022 43.4882C52.5695 44.2272 53.675 44.6101 54.9877 44.6634C56.7589 44.6943 58.2687 44.6995 60.0451 44.6634H60.0476C62.7557 44.5515 64.1312 42.5411 64.1312 40.6683C64.1312 39.5422 63.6769 38.6107 63.0826 38.0034C62.4511 37.3341 61.7044 36.9143 60.249 36.6278C59.8445 36.5487 59.1522 36.4127 58.8037 36.0419C58.6094 35.8356 58.4545 35.5344 58.4545 35.2316C58.4545 34.9537 58.55 34.6415 58.7753 34.3981C58.9929 34.1633 59.3741 33.9964 59.8076 33.9886C61.4016 33.9594 63.2451 33.962 64.8401 33.9886C65.2736 33.9964 65.6546 34.1633 65.8723 34.3981C66.0977 34.6423 66.1932 34.9537 66.1932 35.2316C66.1932 35.8364 65.6736 36.4747 64.7127 36.4747C64.618 36.4765 64.5251 36.4765 64.4297 36.4755C64.4185 36.4755 64.4143 36.4893 64.4228 36.4953Z" fill="white"/>
</g>
</g>
</g>
</g>
</svg>
