<svg width="114" height="129" viewBox="0 0 114 129" fill="none" xmlns="http://www.w3.org/2000/svg">
<path d="M31.8357 13.9863L25.9175 17.4319C24.279 18.3859 23.2711 20.1388 23.2711 22.0348V81.3781C23.2711 83.274 24.279 85.027 25.9175 85.981L76.8143 115.613C78.4708 116.578 80.5178 116.578 82.1743 115.613L88.0926 112.168C89.7313 111.214 90.7389 109.461 90.7389 107.566V48.2218C90.7389 46.3259 89.7313 44.5729 88.0926 43.6189L37.1958 13.9863C35.5393 13.0218 33.4922 13.0218 31.8357 13.9863Z" stroke="white" stroke-width="0.887695"/>
<path d="M32.9718 39.0697L30.1499 40.7002C29.1892 41.2554 28.5975 42.2807 28.5975 43.3904V79.5076C28.5975 80.609 29.1807 81.6282 30.1304 82.1862L60.8784 100.254C61.8651 100.833 63.0907 100.824 64.0683 100.229L67.0484 98.4152C67.9776 97.8489 68.5433 96.8387 68.5397 95.7508L68.4196 59.6299C68.4159 58.5264 67.8273 57.5077 66.873 56.9535L36.0869 39.0731C35.1242 38.514 33.9358 38.5126 32.9718 39.0697Z" stroke="white" stroke-width="0.887695"/>
<path opacity="0.4" d="M79.1984 51.4846V116.286" stroke="white" stroke-width="0.665771" stroke-linecap="round"/>
<path opacity="0.4" d="M62.3314 61.2493V100.308" stroke="white" stroke-width="0.665771" stroke-linecap="round"/>
<path opacity="0.4" d="M24.1588 19.5276L79.2302 51.4846L89.8512 45.329" stroke="white" stroke-width="0.665771" stroke-linecap="round" stroke-linejoin="bevel"/>
<path opacity="0.4" d="M29.4852 42.6077L62.4996 61.2493L67.6578 58.2587" stroke="white" stroke-width="0.665771" stroke-linecap="round" stroke-linejoin="bevel"/>
</svg>
