<svg width="175" height="78" viewBox="0 0 175 78" fill="none" xmlns="http://www.w3.org/2000/svg">
<g id="unqork.svg">
<path id="Vector" d="M85.5097 35.4054C85.5897 34.9668 85.6695 34.5285 85.7493 34.0905C85.7898 33.8655 85.8 33.8559 86.0487 33.8559C86.9374 33.8559 87.8262 33.8559 88.7147 33.8559C88.9162 33.8559 88.9391 33.8763 88.9391 34.0536C88.9391 38.9088 88.9391 43.7638 88.9391 48.6185C88.9391 48.7864 88.9131 48.8094 88.7219 48.8094H85.3267C85.1144 48.8094 85.0853 48.7841 85.0853 48.5944V43.4799L85.0403 43.4555C85.0303 43.4795 85.0177 43.5026 85.0027 43.5246C84.2847 44.3749 83.3126 44.841 82.1481 44.9905C81.1636 45.1171 80.1951 45.0432 79.2653 44.7093C78.0685 44.2809 77.2747 43.4908 76.7793 42.4423C76.4589 41.7643 76.2947 41.0527 76.2309 40.3217C76.1313 39.1789 76.1892 38.0464 76.545 36.9389C76.8816 35.894 77.469 34.9959 78.4837 34.3582C79.1307 33.9515 79.856 33.7204 80.6349 33.6295C81.6276 33.5143 82.6095 33.5493 83.5518 33.8888C84.3063 34.1559 84.944 34.6345 85.3692 35.2531C85.4052 35.305 85.442 35.3564 85.4783 35.4079L85.5097 35.4054ZM85.1323 39.3147L85.1772 39.3094C85.1099 38.8707 85.0645 38.4277 84.969 37.9938C84.8758 37.5307 84.6324 37.1024 84.269 36.7625C83.7488 36.2838 83.0955 36.1308 82.3712 36.136C81.2941 36.144 80.551 36.6033 80.1871 37.5132C79.93 38.1562 79.8909 38.8252 79.9053 39.4988C79.9178 40.0702 79.9875 40.634 80.227 41.1713C80.433 41.6322 80.7498 42.0096 81.2565 42.2337C82.7108 42.8767 84.3843 42.2426 84.8846 40.8647C85.0673 40.3603 85.1336 39.8423 85.1323 39.3147Z" fill="white"/>
<path id="Vector_2" d="M127.26 33.8643C127.045 34.0897 126.853 34.2923 126.66 34.4943C125.391 35.8215 124.123 37.149 122.855 38.4768C122.675 38.6629 122.675 38.7291 122.832 38.934L127.146 44.5135C127.196 44.5782 127.244 44.6433 127.308 44.726C127.235 44.7297 127.189 44.7337 127.142 44.7337C125.911 44.7337 124.679 44.7309 123.448 44.7365C123.179 44.7365 122.989 44.646 122.838 44.4471C121.979 43.3147 121.117 42.1843 120.251 41.0559C120.224 41.0198 120.193 40.9855 120.155 40.9402C120.119 40.9707 120.085 40.9948 120.057 41.0206C119.625 41.444 119.196 41.8693 118.762 42.2908C118.728 42.3219 118.701 42.3589 118.683 42.3998C118.665 42.4406 118.657 42.4842 118.658 42.5279C118.663 43.1946 118.661 43.8617 118.658 44.5283C118.658 44.7068 118.631 44.732 118.437 44.732C117.315 44.732 116.193 44.732 115.072 44.732C114.874 44.732 114.847 44.7091 114.847 44.5312C114.847 39.5606 114.847 34.59 114.847 29.619C114.847 29.4333 114.87 29.4125 115.078 29.4125H118.444C118.658 29.4125 118.676 29.4277 118.675 29.6162C118.661 31.2697 118.646 32.9234 118.63 34.5772C118.618 35.8526 118.605 37.1283 118.592 38.404C118.592 38.5246 118.592 38.6475 118.592 38.7994C118.643 38.7493 118.673 38.7227 118.7 38.6934C120.094 37.1537 121.489 35.6132 122.882 34.072C123.009 33.9313 123.164 33.8514 123.367 33.8514C124.628 33.8514 125.889 33.8514 127.15 33.8514C127.177 33.8559 127.201 33.8594 127.26 33.8643Z" fill="white"/>
<path id="Vector_3" d="M65.372 35.7932C65.5703 35.5521 65.7382 35.321 65.9365 35.1132C66.8824 34.1227 68.1098 33.6521 69.5435 33.5826C70.159 33.5458 70.7771 33.595 71.3758 33.7281C72.8329 34.0652 73.7398 34.9051 74.154 36.189C74.3149 36.6942 74.3955 37.2173 74.3936 37.7427C74.3972 40.0016 74.3972 42.2606 74.3936 44.5195C74.3936 44.7225 74.3793 44.7353 74.1446 44.7353H70.7789C70.5546 44.7353 70.5357 44.7165 70.5362 44.5108C70.5362 42.6565 70.5362 40.8022 70.5362 38.9478C70.5362 38.5335 70.4886 38.122 70.349 37.7237C70.1301 37.0981 69.676 36.7135 68.9382 36.611C68.3674 36.5306 67.8069 36.5576 67.2724 36.765C66.506 37.0623 66.0756 37.6172 65.8813 38.3189C65.7858 38.6592 65.7347 39.0084 65.7292 39.3593C65.714 41.0713 65.722 42.7835 65.722 44.4954C65.722 44.725 65.7103 44.7365 65.4528 44.7365H62.1006C61.8821 44.7365 61.8564 44.7153 61.8564 44.5256C61.8564 41.0428 61.8564 37.5611 61.8564 34.0804C61.8564 33.8831 61.8861 33.8571 62.1047 33.8571C63.0135 33.8571 63.9223 33.8571 64.8308 33.8571C65.0452 33.8571 65.0642 33.8724 65.0951 34.0633C65.1849 34.6331 65.2769 35.2045 65.372 35.7932Z" fill="white"/>
<path id="Vector_4" d="M55.8903 42.9334C55.7332 43.1311 55.6018 43.3135 55.4511 43.4819C54.8174 44.1884 54.0038 44.6474 53.0277 44.8765C51.9351 45.1351 50.7825 45.1071 49.707 44.7961C48.3891 44.4223 47.5619 43.6062 47.1667 42.4296C46.9993 41.9166 46.9169 41.3845 46.9221 40.8503C46.9194 38.5918 46.9194 36.3333 46.9221 34.0748C46.9221 33.874 46.944 33.8542 47.1698 33.8542H50.5206C50.7647 33.8542 50.7786 33.8671 50.7786 34.0913C50.7786 35.9802 50.7718 37.8689 50.7849 39.76C50.7829 40.1371 50.828 40.5133 50.9195 40.8816C51.1516 41.76 51.8117 42.2049 52.8199 42.2173C54.1241 42.2329 55.0422 41.5953 55.3554 40.425C55.4449 40.0925 55.4921 39.752 55.4959 39.41C55.5098 37.6318 55.5022 35.8534 55.5026 34.0752C55.5026 33.8744 55.5251 33.8547 55.7508 33.8547H59.0715C59.3157 33.8547 59.3407 33.8744 59.3407 34.0866C59.3407 37.5717 59.3407 41.0571 59.3407 44.5429C59.3407 44.7036 59.3071 44.7342 59.1196 44.7342C58.2063 44.7342 57.2928 44.7342 56.3791 44.7342C56.2376 44.7342 56.1758 44.6908 56.1568 44.5621C56.0838 44.0643 56.0007 43.5679 55.9209 43.0709C55.915 43.0348 55.9038 42.9961 55.8903 42.9334Z" fill="white"/>
<path id="Vector_5" d="M97.1285 33.5749C98.1063 33.577 99.0711 33.6646 100 33.9478C101.571 34.4253 102.616 35.3772 103.077 36.8011C103.606 38.4346 103.62 40.087 103.07 41.7186C102.544 43.2738 101.375 44.2904 99.6321 44.7349C97.8671 45.1857 96.0868 45.177 94.3318 44.6947C92.6122 44.223 91.5142 43.1677 91.0331 41.6277C90.5705 40.169 90.5549 38.6259 90.9882 37.1599C91.5167 35.3515 92.838 34.2472 94.8538 33.7959C95.6014 33.6283 96.3611 33.5721 97.1285 33.5749ZM94.3372 39.2917C94.3372 39.8355 94.3776 40.3768 94.5405 40.9029C94.8098 41.7724 95.4079 42.3342 96.4311 42.456C96.8096 42.5014 97.1928 42.5067 97.5728 42.4721C98.6385 42.3725 99.2842 41.8633 99.5769 40.9373C99.7163 40.4733 99.7874 39.9949 99.7882 39.5143C99.8003 38.8409 99.7689 38.1709 99.5239 37.5256C99.2452 36.7926 98.6861 36.3349 97.8254 36.2183C97.4477 36.1679 97.0653 36.1531 96.6842 36.1742C95.4891 36.2408 94.7873 36.7842 94.5059 37.8217C94.3731 38.3059 94.3408 38.7975 94.3372 39.2917Z" fill="white"/>
<path id="Vector_6" d="M108.921 35.9656C109.167 35.5718 109.428 35.2061 109.759 34.8835C110.652 34.0138 111.765 33.5894 113.08 33.5762C113.246 33.5762 113.276 33.6044 113.277 33.7586C113.285 34.7054 113.292 35.6522 113.298 36.599C113.298 36.84 113.284 36.8473 113.021 36.84C112.358 36.8221 111.712 36.8899 111.107 37.1519C110.237 37.5277 109.745 38.1742 109.482 38.982C109.337 39.4401 109.265 39.9145 109.268 40.3909C109.268 41.7288 109.268 43.0668 109.268 44.405C109.268 44.463 109.268 44.5207 109.268 44.5786C109.268 44.6887 109.209 44.7394 109.083 44.7361C108.795 44.7322 108.507 44.7361 108.219 44.7361H105.643C105.429 44.7361 105.407 44.7177 105.407 44.5353C105.407 41.0498 105.407 37.5643 105.407 34.0789C105.407 33.878 105.429 33.8579 105.655 33.8579H108.38C108.589 33.8579 108.608 33.8703 108.635 34.0548C108.723 34.6442 108.81 35.2345 108.896 35.8258C108.901 35.8712 108.913 35.9182 108.921 35.9656Z" fill="white"/>
</g>
</svg>
