<svg width="175" height="78" viewBox="0 0 175 78" fill="none" xmlns="http://www.w3.org/2000/svg">
<g id="visa.svg">
<g id="Clip path group">
<mask id="mask0_2_68" style="mask-type:luminance" maskUnits="userSpaceOnUse" x="60" y="29" width="55" height="19">
<g id="clip0_3134_2176">
<path id="Vector" d="M114.845 29.8478H60.345V47.2575H114.845V29.8478Z" fill="white"/>
</g>
</mask>
<g mask="url(#mask0_2_68)">
<g id="Group">
<path id="Vector_2" d="M83.9617 47.0063H79.5468L82.3081 30.1531H86.7228L83.9617 47.0063Z" fill="white"/>
<path id="Vector_3" d="M99.966 30.5653C99.0952 30.2242 97.714 29.8478 96.0063 29.8478C91.6464 29.8478 88.5761 32.1425 88.5573 35.4233C88.5211 37.8439 90.7555 39.1884 92.4267 39.9954C94.1347 40.8201 94.7153 41.3585 94.7153 42.0937C94.698 43.2226 93.3351 43.7431 92.064 43.7431C90.3015 43.7431 89.357 43.4748 87.9217 42.8466L87.3404 42.5773L86.7226 46.3605C87.7581 46.8262 89.6657 47.2394 91.6464 47.2574C96.2788 47.2574 99.2947 44.9982 99.3304 41.5019C99.3479 39.5834 98.1681 38.1134 95.6245 36.9122C94.0804 36.141 93.1348 35.6211 93.1348 34.8321C93.1528 34.1149 93.9346 33.3802 95.6776 33.3802C97.1129 33.3442 98.1675 33.6847 98.9663 34.0255L99.3656 34.2045L99.966 30.5653Z" fill="white"/>
<path id="Vector_4" d="M105.834 41.0358C106.197 40.0676 107.596 36.3205 107.596 36.3205C107.578 36.3565 107.959 35.3345 108.177 34.707L108.486 36.1592C108.486 36.1592 109.322 40.1933 109.503 41.0358C108.813 41.0358 106.706 41.0358 105.834 41.0358ZM111.283 30.1531H107.868C106.815 30.1531 106.015 30.4578 105.561 31.5515L99.0032 47.006H103.636C103.636 47.006 104.398 44.9259 104.562 44.4779C105.07 44.4779 109.577 44.4779 110.231 44.4779C110.357 45.0697 110.757 47.006 110.757 47.006H114.845L111.283 30.1531Z" fill="white"/>
<path id="Vector_5" d="M75.8593 30.1531L71.5357 41.6454L71.0633 39.3146C70.2639 36.6253 67.7569 33.7033 64.9594 32.2504L68.9197 46.9885H73.5883L80.5277 30.1531H75.8593Z" fill="white"/>
<path id="Vector_6" d="M67.5208 30.1531H60.4177L60.345 30.4938C65.8859 31.8922 69.5555 35.2633 71.0631 39.3154L69.519 31.5699C69.2649 30.4935 68.4837 30.1887 67.5208 30.1531Z" fill="white"/>
</g>
</g>
</g>
</g>
</svg>
