<svg width="176" height="77" viewBox="0 0 176 77" fill="none" xmlns="http://www.w3.org/2000/svg">
<g id="vital.svg">
<g id="Clip path group">
<mask id="mask0_2_122" style="mask-type:luminance" maskUnits="userSpaceOnUse" x="61" y="28" width="55" height="19">
<g id="clip0_3134_2170">
<path id="Vector" d="M115.238 28.9674H61.6035V46.1304H115.238V28.9674Z" fill="white"/>
</g>
</mask>
<g mask="url(#mask0_2_122)">
<g id="Group">
<path id="Vector_2" d="M66.7791 30.1389L70.25 41.2825H70.3808L73.8369 30.1389H79.0125L73.4403 45.9427H67.1737L61.6035 30.1389H66.7791Z" fill="white"/>
<path id="Vector_3" d="M80.7026 45.9428V34.0899H85.2516V45.9428H80.7026ZM82.9771 32.8552C82.3902 32.8661 81.822 32.6611 81.3946 32.2842C81.187 32.1123 81.0207 31.9009 80.9068 31.6642C80.7929 31.4275 80.7341 31.1709 80.7341 30.9113C80.7341 30.6517 80.7929 30.395 80.9068 30.1584C81.0207 29.9217 81.187 29.7104 81.3946 29.5384C81.8283 29.171 82.3922 28.9677 82.9771 28.9677C83.5619 28.9677 84.1258 29.171 84.5595 29.5384C84.7666 29.7107 84.9324 29.9221 85.0458 30.1588C85.1593 30.3954 85.2179 30.6519 85.2179 30.9113C85.2179 31.1706 85.1593 31.4271 85.0458 31.6637C84.9324 31.9005 84.7666 32.1119 84.5595 32.2842C84.1329 32.6622 83.5642 32.8673 82.9771 32.8552Z" fill="white"/>
<path id="Vector_4" d="M94.6893 42.7483C94.6021 42.7708 94.4614 42.7964 94.2673 42.8254C94.1102 42.8547 93.9506 42.8707 93.7905 42.8728C93.6241 42.8782 93.4583 42.852 93.3032 42.7957C93.1836 42.744 93.0851 42.6574 93.0224 42.5489C92.959 42.4182 92.928 42.2757 92.9317 42.1321V37.1776H95.1092V34.0899H92.9423V31.251H88.3954V34.0899H86.7792V37.1776H88.3954V42.5331C88.3572 43.2545 88.5372 43.9714 88.9145 44.6014C89.2861 45.1627 89.8499 45.5895 90.5138 45.8123C91.3586 46.0814 92.2536 46.1835 93.1427 46.1127C93.5922 46.0957 94.0391 46.0415 94.4783 45.9506C94.8582 45.8704 95.1493 45.8012 95.3518 45.7433L94.6893 42.7483Z" fill="white"/>
<path id="Vector_5" d="M100.502 46.1283C99.7688 46.142 99.0404 46.0162 98.3605 45.7589C97.7658 45.5223 97.2603 45.1247 96.9089 44.6172C96.5348 44.0304 96.3515 43.3542 96.3813 42.6714C96.3644 42.1002 96.4855 41.5329 96.7359 41.0119C96.9604 40.563 97.3004 40.1735 97.7253 39.878C98.1713 39.574 98.6715 39.3466 99.2023 39.2063C99.7992 39.0467 100.412 38.946 101.032 38.906C101.735 38.8546 102.304 38.7928 102.739 38.7203C103.072 38.6792 103.392 38.5714 103.677 38.4043C103.769 38.3416 103.843 38.2591 103.894 38.1639C103.944 38.0685 103.969 37.9634 103.967 37.857V37.8254C103.973 37.6866 103.942 37.5485 103.876 37.4244C103.809 37.3001 103.71 37.194 103.587 37.1163C103.298 36.9412 102.958 36.8549 102.614 36.8693C102.241 36.8557 101.873 36.9495 101.559 37.1379C101.421 37.2333 101.307 37.3549 101.223 37.4949C101.139 37.635 101.088 37.79 101.074 37.9499H96.8771C96.9283 37.2371 97.181 36.5499 97.6093 35.9586C98.0926 35.3135 98.7572 34.8061 99.5294 34.4928C100.373 34.1215 101.423 33.9358 102.679 33.9358C103.504 33.9253 104.325 34.0272 105.119 34.2379C105.78 34.4068 106.402 34.6866 106.956 35.0638C107.437 35.387 107.832 35.8094 108.11 36.2984C108.379 36.7678 108.518 37.2928 108.513 37.8254V45.9427H104.262V44.2773H104.163C103.936 44.6899 103.621 45.0548 103.239 45.35C102.877 45.6247 102.459 45.8265 102.011 45.9427C101.52 46.0713 101.012 46.1338 100.502 46.1283ZM101.979 43.4437C102.315 43.4471 102.647 43.3795 102.952 43.2462C103.253 43.1192 103.512 42.9194 103.703 42.6674C103.901 42.3978 104.002 42.076 103.992 41.7488V40.7611C103.87 40.8085 103.741 40.8519 103.604 40.8933C103.466 40.9349 103.329 40.9724 103.182 41.0079C103.034 41.0435 102.874 41.079 102.703 41.1087C102.532 41.1384 102.365 41.168 102.184 41.1937C101.882 41.2301 101.589 41.3163 101.319 41.4484C101.116 41.5459 100.946 41.6927 100.825 41.8733C100.718 42.0411 100.664 42.2331 100.667 42.4283C100.658 42.5733 100.687 42.7179 100.752 42.8498C100.817 42.9816 100.915 43.0966 101.038 43.1849C101.314 43.3674 101.648 43.4584 101.985 43.4437H101.979Z" fill="white"/>
<path id="Vector_6" d="M115.238 30.1389V45.9427H110.687V30.1389H115.238Z" fill="white"/>
</g>
</g>
</g>
</g>
</svg>
