<svg width="175" height="77" viewBox="0 0 175 77" fill="none" xmlns="http://www.w3.org/2000/svg">
<g id="xp.svg">
<path id="Vector" d="M97.3353 48.2968C98.8752 48.2968 100.836 48.3088 102.362 48.2929C103.08 48.2857 103.691 47.9701 104.148 47.433C104.804 46.6697 104.913 45.7755 104.486 44.8805C104.067 44.0055 103.34 43.5166 102.333 43.518C101.596 43.518 100.859 43.518 100.122 43.518C99.3316 43.518 98.1436 43.5273 97.3301 43.514C97.3205 43.5139 97.3111 43.5157 97.3024 43.5192C97.2936 43.5228 97.2857 43.5279 97.2789 43.5346C97.272 43.5413 97.2667 43.5492 97.2631 43.5579C97.2592 43.5666 97.2573 43.5759 97.2573 43.5854C97.2573 43.6515 97.2573 43.7588 97.2573 43.9333C97.2692 45.2417 97.2573 46.5506 97.2632 47.8596C97.2632 48.0495 97.2632 48.158 97.2599 48.2189C97.2591 48.2291 97.2603 48.2393 97.2639 48.249C97.2673 48.2587 97.2727 48.2675 97.2799 48.275C97.287 48.2824 97.2956 48.2881 97.3053 48.2919C97.3148 48.2957 97.325 48.2974 97.3353 48.2968Z" fill="white"/>
<path id="Vector_2" d="M93.3521 41.6825C93.3527 41.6653 93.3481 41.6483 93.3389 41.6337C93.3297 41.6191 93.3164 41.6077 93.3008 41.6006C93.2851 41.5935 93.2677 41.5912 93.2506 41.594C93.2337 41.5968 93.2179 41.6045 93.2054 41.6162C93.1241 41.6917 93.0321 41.7784 92.9937 41.8148C91.6377 43.1376 90.3241 44.5022 88.9053 45.7603C88.8925 45.772 88.8822 45.7863 88.8748 45.8021C88.8676 45.8179 88.8635 45.8349 88.8628 45.8524C88.8622 45.8697 88.8649 45.887 88.871 45.9033C88.877 45.9197 88.8861 45.9347 88.898 45.9475C89.7208 46.7907 92.536 49.4795 93.2159 50.125C93.2284 50.1372 93.2442 50.1452 93.2613 50.1482C93.2784 50.1512 93.296 50.149 93.3118 50.1418C93.3276 50.1347 93.341 50.123 93.35 50.1083C93.3591 50.0934 93.3636 50.0763 93.3628 50.059C93.3628 50.059 93.3542 50.059 93.3542 45.9065C93.3542 44.6701 93.3556 42.971 93.3521 41.6825Z" fill="white"/>
<path id="Vector_3" d="M108.091 24.3633C108.037 23.5017 107.679 22.6873 107.081 22.0648C106.483 21.4422 105.683 21.052 104.824 20.9635L104.798 20.9456H104.486H104.45H92.7681H83.3492H72.0993H72.0636H71.6482C71.642 20.9565 71.6347 20.9667 71.6264 20.976C70.7484 21.0911 69.9422 21.5215 69.358 22.1871C68.7738 22.8527 68.4516 23.7079 68.4515 24.5934V28.4688L68.4607 28.4642C68.4607 30.8896 68.4607 33.313 68.4607 35.7349C68.4607 40.5475 68.4746 45.3608 68.4607 50.1741L68.4541 50.1695V52.3033C68.4541 53.2711 68.8386 54.1993 69.5229 54.8837C70.2073 55.568 71.1355 55.9525 72.1033 55.9525H76.8412H93.4679C93.4752 55.2824 93.4408 54.2102 93.5579 53.7473C93.7861 52.845 94.4033 52.3482 95.195 51.9951C95.285 51.9548 95.3788 51.9249 95.4688 51.8853C95.5164 51.8648 96.0767 51.6967 96.0767 51.6967L94.5289 51.6915L89.3889 51.6498C88.5474 50.8011 86.1756 48.4564 86.1756 48.4564C85.319 49.2811 83.9227 50.6299 83.031 51.4897C82.9742 51.5451 82.8981 51.576 82.8186 51.5757H78.1562C78.1294 51.576 78.1034 51.5682 78.0812 51.5535C78.059 51.5386 78.0418 51.5175 78.0319 51.4927C78.022 51.4681 78.0198 51.4408 78.0255 51.4148C78.0312 51.3888 78.0448 51.3651 78.0642 51.3468C78.7118 50.7277 80.5156 48.9994 81.4839 48.0449C82.1394 47.398 83.1692 46.4906 83.8386 45.8569C83.8386 45.8569 81.0467 43.1615 79.7932 41.9947C79.3045 41.5397 78.2058 40.4972 77.809 40.1221C77.7973 40.1114 77.7891 40.0972 77.7856 40.0815C77.782 40.066 77.7832 40.0498 77.7891 40.0348C77.795 40.0199 77.8052 40.0073 77.8184 39.9983C77.8316 39.9893 77.8471 39.9845 77.8632 39.9846C79.3031 39.9846 81.3688 39.9846 82.7803 39.9846C82.8109 39.9841 82.8412 39.9897 82.8696 40.0011C82.8981 40.0124 82.924 40.0293 82.9458 40.0507C83.2102 40.3153 84.1627 41.2723 84.5821 41.6891C85.0623 42.1674 85.5511 42.6383 86.0426 43.1046L86.1948 43.2495C87.0361 42.4121 88.4581 41.0614 89.3623 40.1532C89.472 40.0424 89.6212 39.9796 89.7771 39.9787H90.0463C94.2722 39.9898 98.4976 39.972 102.723 39.9932H102.804C103.927 39.9958 105.026 40.325 105.966 40.9408C106.906 41.5567 107.647 42.4325 108.098 43.4617V24.3784L108.091 24.3633Z" fill="white"/>
<path id="Vector_4" d="M103.388 51.6663C103.206 51.6876 103.023 51.6975 102.839 51.6961C101.111 51.6809 99.3837 51.6895 97.6561 51.6908C97.1832 51.6908 97.1422 51.7292 97.1415 52.1936C97.1415 53.1856 97.1415 54.8757 97.1415 55.9525C99.1055 55.9525 101.07 55.9512 103.034 55.9485L103.03 55.9525H104.452C105.383 55.9526 106.279 55.5963 106.957 54.9569C107.634 54.3173 108.041 53.443 108.095 52.513L108.101 52.5025V48.2268C107.689 49.1652 107.036 49.9776 106.208 50.5818C105.38 51.1859 104.407 51.56 103.388 51.6663Z" fill="white"/>
</g>
</svg>
